<?xml version="1.0" encoding="UTF-8"?>
<svg width="40px" height="38px" viewBox="0 0 40 38" version="1.1" xmlns="http://www.w3.org/2000/svg" xmlns:xlink="http://www.w3.org/1999/xlink">
    <!-- Generator: sketchtool 52.3 (67297) - http://www.bohemiancoding.com/sketch -->
    <title>37867990-2BBB-47F9-BBC5-7A7EAEA24550</title>
    <desc>Created with sketchtool.</desc>
    <g id="Page-1" stroke="none" stroke-width="1" fill="none" fill-rule="evenodd">
        <g id="orders-copy-5" transform="translate(-460.000000, -255.000000)" fill="#282828" fill-rule="nonzero">
            <g id="box-2-copy" transform="translate(461.000000, 256.000000)">
                <path d="M35.054925,25.7041944 C34.9160933,25.3047802 34.4988155,25.1005007 34.1227388,25.2478721 L26.5747345,28.2058051 C26.1986579,28.3531765 26.0063144,28.7964244 26.145075,29.1958387 C26.2533082,29.507208 26.5307581,29.7 26.826069,29.7 C26.9094677,29.7 26.9943607,29.6845827 27.0772612,29.652161 L34.6252655,26.694228 C35.0013421,26.5468566 35.1936856,26.1036087 35.054925,25.7041944 Z" id="Shape"></path>
                <path d="M25.1542114,29.3444058 C25.0133008,28.9131191 24.5891955,28.6925803 24.2070959,28.8516816 L23.8823293,28.9868768 C23.500302,29.145978 23.3048058,29.6245055 23.4457886,30.0556291 C23.555683,30.3917814 23.8376486,30.6 24.137689,30.6 C24.2224233,30.6 24.3086759,30.5833556 24.3929041,30.5483533 L24.7176707,30.4131581 C25.099698,30.2540568 25.2951942,29.7756109 25.1542114,29.3444058 Z" id="Shape"></path>
                <path d="M35.0507737,22.067808 C34.899156,21.6971738 34.4434479,21.5077541 34.0327355,21.6443663 L27.5184564,23.8134705 C27.107744,23.9502229 26.8976862,24.3615322 27.0492263,24.7321664 C27.1674275,25.0210998 27.4704299,25.2 27.7929382,25.2 C27.8840176,25.2 27.976729,25.1856936 28.0672645,25.1556081 L34.5815436,22.9865039 C34.992256,22.8497514 35.2023138,22.4384422 35.0507737,22.067808 Z" id="Shape"></path>
                <path d="M35.0507737,19.367808 C34.899156,18.9971738 34.4434479,18.8077541 34.0327355,18.9443663 L27.5184564,21.1134705 C27.107744,21.2502229 26.8976862,21.6615322 27.0492263,22.0321664 C27.1674275,22.3210998 27.4704299,22.5 27.7929382,22.5 C27.8840176,22.5 27.976729,22.4856936 28.0672645,22.4556081 L34.5815436,20.2865039 C34.992256,20.1497514 35.2023138,19.7384422 35.0507737,19.367808 Z" id="Shape"></path>
                <path d="M37.3077141,6.66078331 L19.1606871,0.0459485085 C18.9924328,-0.0153161695 18.8075672,-0.0153161695 18.6393867,0.0459485085 L0.492359766,6.66078331 L0.492212109,6.66136679 C0.432780469,6.68310116 0.3756375,6.71183721 0.32248125,6.74837722 C0.120413672,6.88753556 0,7.11545474 0,7.3586901 L0,28.6413099 C0,28.9528116 0.196456641,29.2313471 0.492285937,29.3392167 L18.6393129,35.9540515 C18.7239199,35.9849026 18.8121445,36 18.8999262,36 C18.9885937,36 19.0768184,35.9841004 19.1603918,35.9536139 L19.1606871,35.9540515 L37.3077141,29.3392167 C37.6035434,29.2313471 37.8,28.9528845 37.8,28.6413099 L37.8,7.3586901 C37.8,7.04711545 37.6035434,6.76865291 37.3077141,6.66078331 Z M18.147027,34.1888265 L1.50594609,28.122894 L1.50594609,8.42608125 L4.89436172,9.66129385 L4.89436172,18.6743491 C4.89436172,18.9858508 5.09081836,19.2643863 5.38664766,19.3722559 L13.5188895,22.336664 C13.6034965,22.3675151 13.6917211,22.3826125 13.7795027,22.3826125 C13.931441,22.3826125 14.0820504,22.3371745 14.2101422,22.2489972 C14.4121359,22.1099117 14.5325496,21.8819926 14.5325496,21.6387572 L14.5325496,13.1745314 L18.1468793,14.4920137 L18.147027,34.1888265 Z M13.0266773,12.6255561 L13.0266773,20.5712202 L6.40038164,18.1557873 L6.40038164,10.2101233 L13.0266773,12.6255561 Z M7.82260664,9.13682445 L13.7796504,6.96535628 L19.7366941,9.13682445 L13.7796504,11.3082926 L7.82260664,9.13682445 Z M18.9,13.1806579 L15.9468012,12.10415 L22.1726531,9.8346583 C22.4684824,9.72678871 22.6649391,9.44832616 22.6649391,9.13675151 C22.6649391,8.82517687 22.4684824,8.54671432 22.1726531,8.43884472 L14.0403375,5.47450952 C13.8720832,5.41324484 13.6872914,5.41324484 13.5189633,5.47450952 L5.63921367,8.34694771 L2.92824492,7.3586901 L18.9,1.53679527 L34.8717551,7.35876304 L18.9,13.1806579 Z M36.2940539,28.122894 L19.6530469,34.1887536 L19.6530469,14.4920137 L36.2940539,8.42608125 L36.2940539,28.122894 Z" id="Shape" stroke="#282828" stroke-width="0.81"></path>
            </g>
        </g>
    </g>
</svg>