<?xml version="1.0" encoding="UTF-8"?>
<svg width="40px" height="28px" viewBox="0 0 40 28" version="1.1" xmlns="http://www.w3.org/2000/svg" xmlns:xlink="http://www.w3.org/1999/xlink">
    <!-- Generator: sketchtool 52.3 (67297) - http://www.bohemiancoding.com/sketch -->
    <title>C34BFCC2-E0A2-4C2E-8589-2C687C218666</title>
    <desc>Created with sketchtool.</desc>
    <g id="Page-1" stroke="none" stroke-width="1" fill="none" fill-rule="evenodd">
        <g id="orders-copy-5" transform="translate(-689.000000, -261.000000)" fill="#282828" fill-rule="nonzero">
            <g id="credit-card-2-copy" transform="translate(689.000000, 261.000000)">
                <path d="M25.7407078,24.8533879 C23.7879044,24.8533879 22.1232445,23.4068005 21.8108364,21.4375617 C21.4979227,19.4683229 22.6287592,17.5579598 24.4814706,16.926853 C26.3336765,16.2957464 28.3607904,17.1303359 29.2671783,18.8971248 C30.1740717,20.6639136 29.6923162,22.8417998 28.1302757,24.0394565 C27.4407537,24.5672725 26.6026103,24.8528714 25.7407078,24.8533879 Z M25.7407078,18.8330845 C24.8034834,18.8330845 24.0047702,19.527715 23.8546324,20.4728257 C23.7044945,21.4179363 24.2479227,22.3351585 25.1371231,22.6378006 C26.0263235,22.9404425 26.9989338,22.5391579 27.4336765,21.6911406 C27.8684191,20.8426067 27.6368933,19.797304 26.8867096,19.2230072 C26.5566084,18.9689119 26.1542187,18.8320516 25.7407078,18.8330845 Z" id="Shape"></path>
                <path d="M29.2762775,24.8533879 C28.414375,24.8559702 27.5747151,24.5698547 26.8867096,24.0394565 C26.6263695,23.8395889 26.4731985,23.5261013 26.4731985,23.193505 C26.4731985,22.8609087 26.6263695,22.5479375 26.8867096,22.34807 C27.3684651,21.9793218 27.6515533,21.400377 27.6515533,20.7857967 C27.6515533,20.1707002 27.3684651,19.5917553 26.8867096,19.2230072 C26.6263695,19.0236559 26.4731985,18.7101684 26.4731985,18.3775722 C26.4731985,18.0449757 26.6263695,17.7314883 26.8867096,17.5316206 C28.2723254,16.4697913 30.1715441,16.4444851 31.5834467,17.4701625 C32.9953492,18.4958401 33.5964063,20.3364819 33.0691544,22.0227039 C32.542408,23.708926 31.0086765,24.8533879 29.2762775,24.8533879 Z M29.2307813,22.7379926 L29.2762775,22.7379926 C30.3317922,22.7379926 31.1871231,21.8636361 31.1871231,20.7857967 C31.1871231,19.7074409 30.3317922,18.8330845 29.2762775,18.8330845 C29.2611122,18.8330845 29.2459467,18.8330845 29.2307813,18.8330845 C29.8859283,20.0483005 29.8859283,21.5217437 29.2307813,22.7369597 L29.2307813,22.7379926 Z" id="Shape"></path>
                <path d="M33.7166379,27.9 C36.9641486,27.8959216 39.5964585,25.2439254 39.6,21.9709887 L39.6,5.92850156 C39.5964585,2.65556486 36.9641486,0.00356865506 33.7166379,0 L5.88336205,0 C2.63585138,0.00356865506 0.00354145755,2.65556486 0,5.92850156 L0,21.5050286 C0.00404737266,25.034906 2.8427734,27.8959216 6.34628033,27.9 L33.7166379,27.9 Z M5.88336205,2.34917317 L33.7166379,2.34917317 C35.67759,2.35121238 37.2666897,3.95250421 37.2687133,5.92850156 L37.2687133,6.53669675 L2.33078076,6.53669675 L2.33078076,5.92850156 C2.33331034,3.95250421 3.92241,2.35121238 5.88336205,2.34917317 Z M2.33078076,21.5050286 L2.33078076,8.88586992 L37.2687133,8.88586992 L37.2687133,21.9709887 C37.2666897,23.946986 35.67759,25.5482779 33.7166379,25.5508268 L6.34577444,25.5508268 C4.12983791,25.5482779 2.33331034,23.7384764 2.33078076,21.5050286 Z" id="Shape"></path>
            </g>
        </g>
    </g>
</svg>