<?xml version="1.0" encoding="UTF-8"?>
<svg width="48px" height="35px" viewBox="0 0 48 35" version="1.1" xmlns="http://www.w3.org/2000/svg" xmlns:xlink="http://www.w3.org/1999/xlink">
    <!-- Generator: sketchtool 52.3 (67297) - http://www.bohemiancoding.com/sketch -->
    <title>6FEE75F7-15D1-405D-9348-79F911B0B459</title>
    <desc>Created with sketchtool.</desc>
    <g id="Page-1" stroke="none" stroke-width="1" fill="none" fill-rule="evenodd">
        <g id="orders-copy-5" transform="translate(-902.000000, -257.000000)" fill="#282828" fill-rule="nonzero" stroke="#282828" stroke-width="0.81">
            <g id="delivery-truck-copy" transform="translate(903.000000, 258.000000)">
                <path d="M37.1592432,10.6465544 L34.2695042,10.6465544 L35.1401732,0.725056177 C35.1417869,0.707083254 35.1420558,0.689377256 35.1421455,0.671671258 C35.1421455,0.670158685 35.1423248,0.668735087 35.1423248,0.667222515 C35.1423248,0.66695559 35.1423248,0.66677764 35.1423248,0.666510716 C35.1423248,0.396472 34.9781778,0.158464235 34.736933,0.0549864667 C34.734871,0.0540967181 34.7328988,0.0530290197 34.7308368,0.052139271 C34.7158655,0.0459110305 34.7003563,0.0405725386 34.6847574,0.0354119964 C34.6789302,0.0335435242 34.673372,0.0312301777 34.6675448,0.0294506804 C34.6548147,0.0256247612 34.6417259,0.0225996158 34.6287269,0.0194854955 C34.6195827,0.0173500987 34.6107971,0.0147698276 34.6015633,0.0129903303 C34.5901779,0.0107659587 34.5783443,0.00934236085 34.5666899,0.00765183841 C34.5557528,0.00605029084 34.5449949,0.00418181867 34.5339681,0.00320309515 C34.5320855,0.00302514542 34.5303821,0.00266924596 34.5284995,0.00249129623 C34.5166659,0.00142359784 34.5050115,0.00160154757 34.4932676,0.00115667325 C34.4853785,0.000889748653 34.4776687,3.79322665e-15 34.4697796,3.79322665e-15 L34.4613526,3.79322665e-15 C34.4606354,3.79322665e-15 34.4599182,3.79322665e-15 34.4592907,3.79322665e-15 L20.7097664,3.79322665e-15 C20.3386205,3.79322665e-15 20.0374005,0.298955547 20.0374005,0.66731149 C20.0374005,1.03477768 20.3386205,1.33462298 20.7097664,1.33462298 L33.7369007,1.33462298 L32.3988029,16.5826905 C32.3986236,16.5838472 32.3986236,16.5850039 32.3984443,16.5861605 L32.060827,20.4335227 L8.69754608,20.4335227 L9.08832515,16.4298317 L13.5367876,16.4298317 C13.9082026,16.4298317 14.2091536,16.1310541 14.2091536,15.7625202 C14.2091536,15.3939863 13.9082026,15.0952087 13.5367876,15.0952087 L9.21867449,15.0952087 L10.0438019,6.64304139 L17.1238149,6.64304139 C17.4952299,6.64304139 17.7961808,6.34426379 17.7961808,5.9757299 C17.7961808,5.60719601 17.4952299,5.30841841 17.1238149,5.30841841 L10.1741513,5.30841841 L10.5621512,1.33462298 L18.0203028,1.33462298 C18.3905523,1.33462298 18.6926687,1.03477768 18.6926687,0.66731149 C18.6926687,0.298955547 18.3905523,0 18.0203028,0 L9.95191192,0 C9.95155333,0 9.95128438,8.89748653e-05 9.95092578,8.89748653e-05 C9.63509311,0 9.36112641,0.220657666 9.29487596,0.526553253 C9.29442771,0.528777624 9.29362087,0.530913021 9.29317263,0.533137393 C9.28976598,0.549775692 9.28752476,0.566769892 9.28528354,0.583853066 C9.28465599,0.589280533 9.28349056,0.594441075 9.28295267,0.599868542 C9.28286302,0.60093624 9.28259407,0.601914964 9.28250442,0.602982662 L8.82314404,5.30841841 L0.672365908,5.30841841 C0.30095098,5.30841841 0,5.60719601 0,5.9757299 C0,6.34426379 0.30095098,6.64304139 0.672365908,6.64304139 L8.6927947,6.64304139 L7.86766726,15.0952087 L5.46875535,15.0952087 C5.09734042,15.0952087 4.79638944,15.3939863 4.79638944,15.7625202 C4.79638944,16.1310541 5.09734042,16.4298317 5.46875535,16.4298317 L7.73740757,16.4298317 L7.28808784,21.0317007 C7.2879982,21.0324125 7.2879982,21.0331243 7.28790855,21.0337471 L6.59322009,28.1498679 C6.59313044,28.1506686 6.59304079,28.1515584 6.59295114,28.1522702 L6.5926822,28.1548505 C6.59178571,28.1641039 6.59187536,28.1731793 6.59133747,28.1824327 C6.59070992,28.1947112 6.58945484,28.2067228 6.58945484,28.2191793 C6.58945484,28.2197131 6.58954449,28.220247 6.58954449,28.2208698 C6.58954449,28.238042 6.59079957,28.2549472 6.59205466,28.2718524 C6.59259255,28.2772799 6.59241325,28.2827963 6.59304079,28.2881348 C6.59483377,28.3053959 6.59779218,28.3223901 6.60092989,28.3392954 C6.60182637,28.344278 6.60227462,28.3493495 6.60326075,28.3542431 C6.60586057,28.3670555 6.60953617,28.379423 6.61294282,28.3919685 C6.61527369,28.400777 6.61715632,28.4097635 6.61984578,28.418394 C6.62065262,28.4207963 6.62172841,28.4231097 6.6224456,28.425601 C6.65498811,28.5248969 6.71021176,28.6140497 6.78228938,28.6868312 C6.78363412,28.6881658 6.7847099,28.6896784 6.78605463,28.690924 C6.79322654,28.698042 6.80102598,28.7044482 6.80855648,28.7112103 C6.8549049,28.7533844 6.90725979,28.7891523 6.96454537,28.8171794 C6.97646866,28.8230517 6.98821265,28.829191 7.00040488,28.8342625 C7.00408048,28.8358641 7.00802503,28.8369318 7.01179028,28.8383554 C7.02864425,28.8450285 7.04558787,28.8514347 7.06306939,28.8568622 C7.06468307,28.857307 7.06620709,28.857574 7.06782077,28.8581078 C7.0877228,28.8639801 7.10780413,28.8691407 7.1283337,28.8733225 C7.13102317,28.8738564 7.13380228,28.8740343 7.1364021,28.8745682 C7.15594553,28.8782161 7.17557862,28.8813302 7.1955703,28.8832877 C7.19601854,28.8832877 7.19637713,28.8833767 7.19682538,28.8834656 C7.21887898,28.885601 7.24075328,28.8866687 7.26244829,28.8866687 C7.26271724,28.8866687 7.26307583,28.8865798 7.26343443,28.8865798 L10.2566282,28.8865798 C10.5871632,31.3736942 12.7355964,33.3 15.3304806,33.3 C17.9251854,33.3 20.0736186,31.3736942 20.4041537,28.8865798 L31.1888132,28.8865798 C31.519438,31.3736942 33.6677815,33.3 36.262576,33.3 C38.8572809,33.3 41.0058934,31.3736942 41.3365181,28.8865798 L44.330429,28.8865798 C44.3308773,28.8865798 44.3314152,28.8866687 44.3318634,28.8866687 C44.3542756,28.8866687 44.3763292,28.8853341 44.3982035,28.8831987 C44.4021481,28.8828428 44.4059133,28.882042 44.4098579,28.8815972 C44.4273394,28.8795507 44.4447312,28.8771484 44.4617645,28.8737674 C44.4691157,28.8723438 44.476198,28.8703863 44.4834595,28.8686958 C44.4966379,28.8656707 44.5099059,28.8624676 44.5228153,28.8586417 C44.5316009,28.8560614 44.5401175,28.8530362 44.5487238,28.8501001 C44.5597506,28.8463631 44.5707774,28.8424482 44.5816249,28.8380885 C44.5909484,28.8344405 44.5998236,28.8304366 44.6088782,28.8264327 C44.6187395,28.821895 44.6286009,28.8172683 44.6381933,28.8123747 C44.6473375,28.807748 44.6561231,28.8029434 44.6649087,28.7979608 C44.6741425,28.7926223 44.6832867,28.7871059 44.6923412,28.7814115 C44.7007682,28.776073 44.7091952,28.7706455 44.7172635,28.7649511 C44.7264077,28.7586339 44.7351037,28.7519608 44.7439789,28.7451987 C44.7513301,28.7394153 44.7587709,28.7337209 44.7659428,28.7276706 C44.7751767,28.7199298 44.7838726,28.7118331 44.7926582,28.7035585 C44.7987543,28.6977751 44.8051194,28.6920807 44.8110362,28.6860304 C44.8203596,28.6765991 44.8292349,28.6666339 44.8381101,28.6565797 C44.8428615,28.6511523 44.8477922,28.6459027 44.8523643,28.6403863 C44.8622256,28.6282857 44.8711905,28.6158292 44.8801554,28.6032838 C44.8832035,28.598924 44.8866101,28.5948312 44.8895685,28.5903824 C44.9005057,28.5741 44.9108153,28.5573728 44.920318,28.5401116 C44.9210352,28.5390439 44.9217524,28.5380652 44.9222007,28.5369085 C44.932331,28.5184018 44.9416545,28.4994501 44.9499918,28.4798756 C44.9523227,28.4742702 44.9541156,28.4684869 44.9563569,28.4628814 C44.9618254,28.4490903 44.9672044,28.4352992 44.9717765,28.4209743 C44.9747349,28.4117209 44.9768864,28.4022006 44.9794862,28.3928582 C44.9824447,28.3817364 44.9855824,28.3707035 44.9880925,28.3594037 C44.9903338,28.3493495 44.9917681,28.3390284 44.9934715,28.3287963 C44.9949955,28.3198099 44.9969678,28.3110014 44.9981332,28.3018369 C45.0266415,28.075129 45.5531488,23.8827223 45.7882976,21.1718361 C45.7885666,21.1692558 45.7886562,21.1665866 45.7889252,21.1640063 C45.85661,20.3825401 45.9,19.724482 45.9,19.3216038 C45.9,14.5382261 41.9789413,10.6465544 37.1592432,10.6465544 Z M34.1523332,11.9813554 L36.903027,11.9813554 L36.5516934,15.9848684 L33.8009996,15.9848684 L34.1523332,11.9813554 Z M15.3306599,31.965288 C13.249284,31.965288 11.5559977,30.2847308 11.5559977,28.2190903 C11.5559977,26.1534498 13.2493736,24.4728926 15.3306599,24.4728926 C17.4119461,24.4728926 19.1052324,26.1534498 19.1052324,28.2190903 C19.1052324,30.2847308 17.4119461,31.965288 15.3306599,31.965288 Z M36.262576,31.965288 C34.1812898,31.965288 32.4880931,30.2847308 32.4880931,28.2190903 C32.4880931,26.1534498 34.1813794,24.4728926 36.262576,24.4728926 C38.3439519,24.4728926 40.0372382,26.1534498 40.0372382,28.2190903 C40.0372382,30.2847308 38.3439519,31.965288 36.262576,31.965288 Z M43.7363265,27.5515119 L41.3366974,27.5515119 C41.006252,25.0642195 38.8577291,23.1378247 36.2627553,23.1378247 C33.6679608,23.1378247 31.519438,25.0643085 31.1889925,27.5515119 L20.4044227,27.5515119 C20.0739772,25.0642195 17.925544,23.1378247 15.3306599,23.1378247 C12.7357757,23.1378247 10.5871632,25.0643085 10.2567178,27.5515119 L8.00258868,27.5515119 L8.5672864,21.7677898 L32.6769831,21.7677898 L32.6769831,21.7681457 C32.6773417,21.7681457 32.6776107,21.7681457 32.6779692,21.7681457 C32.7004711,21.7681457 32.7227936,21.7669 32.7448472,21.7646756 C32.7489711,21.7643197 32.7530053,21.76343 32.7571291,21.7628961 C32.7747003,21.7608497 32.7921818,21.7583584 32.8093944,21.7549774 C32.8168352,21.7534648 32.8240968,21.7514184 32.831448,21.7496389 C32.8448953,21.7464358 32.8583426,21.7433217 32.8714313,21.7394068 C32.8803962,21.7367375 32.8889128,21.7335344 32.8976088,21.7305093 C32.9089045,21.7265944 32.9202003,21.7227685 32.9311374,21.7183197 C32.9405505,21.7144938 32.9496051,21.710223 32.9587493,21.7059522 C32.9687003,21.7014145 32.9786513,21.6968768 32.9882437,21.6918942 C32.9973879,21.6870896 33.0063528,21.681929 33.0154073,21.6767685 C33.0246411,21.67143 33.0337853,21.6660025 33.0427502,21.6603081 C33.0514461,21.6547027 33.0596938,21.6488304 33.0680311,21.642958 C33.0769064,21.6367298 33.0855126,21.6303236 33.0941189,21.6236505 C33.1018287,21.6175112 33.1094489,21.611194 33.1169794,21.6046988 C33.125496,21.5974029 33.1338333,21.589929 33.1419017,21.5821882 C33.148715,21.575693 33.1555283,21.5690199 33.1621624,21.5621688 C33.1702307,21.5538052 33.1780302,21.5451746 33.18574,21.5363661 C33.1917465,21.5294261 33.1976633,21.5224861 33.2034008,21.5153681 C33.2108416,21.5060257 33.2179239,21.4964164 33.2249165,21.4867182 C33.2302058,21.4794222 33.2353158,21.4721263 33.2403361,21.4646524 C33.2468805,21.4545982 33.2531559,21.4442772 33.2591623,21.4337781 C33.2637344,21.4259483 33.2683962,21.4181185 33.27252,21.4101108 C33.2781679,21.3996118 33.2830089,21.3889348 33.2881189,21.3781688 C33.2920634,21.3695383 33.2960976,21.3610857 33.2996836,21.3521882 C33.3040764,21.3416891 33.307752,21.3309232 33.3116069,21.3201572 C33.3149239,21.3106369 33.3184202,21.3011166 33.3213786,21.2913294 C33.324337,21.2810083 33.3267575,21.2704203 33.329447,21.2599212 C33.3320468,21.2493332 33.3349156,21.2388342 33.3369775,21.2280682 C33.3390394,21.2175692 33.3402945,21.2068922 33.3419082,21.1962152 C33.3435218,21.1851823 33.3454045,21.1743274 33.3464803,21.1631166 C33.3466596,21.161515 33.3470182,21.1600025 33.3471078,21.1584009 L33.6840976,17.3191355 L37.1590639,17.3191355 C39.2191034,17.3191355 40.1482234,18.3784702 41.1317603,19.5000874 C41.9433508,20.4255149 42.8494311,21.4580683 44.3895972,21.7099561 C44.1939836,23.7626062 43.8777923,26.3976859 43.7363265,27.5515119 Z M44.504527,20.3726639 C43.5053912,20.170513 42.8906695,19.4733949 42.145957,18.6242188 C41.2145958,17.5623038 40.0775802,16.2663849 37.8979492,16.0249071 L38.2457865,12.0612548 C41.8105809,12.584516 44.5552682,15.6406246 44.5552682,19.3217817 C44.5552682,19.5718901 44.5364419,19.9352634 44.504527,20.3726639 Z" id="Shape"></path>
                <path d="M5.64676576,10.8 L2.45323424,10.8 C2.09238764,10.8 1.8,11.20296 1.8,11.7 C1.8,12.19704 2.09238764,12.6 2.45323424,12.6 L5.64676576,12.6 C6.00761236,12.6 6.3,12.19704 6.3,11.7 C6.3,11.20296 6.00761236,10.8 5.64676576,10.8 Z" id="Shape"></path>
            </g>
        </g>
    </g>
</svg>