<?xml version="1.0" encoding="UTF-8"?>
<svg width="42px" height="31px" viewBox="0 0 42 31" version="1.1" xmlns="http://www.w3.org/2000/svg" xmlns:xlink="http://www.w3.org/1999/xlink">
    <!-- Generator: sketchtool 52.3 (67297) - http://www.bohemiancoding.com/sketch -->
    <title>B35C90E4-67F4-4DBE-A737-2ECFD8AF0136</title>
    <desc>Created with sketchtool.</desc>
    <g id="Page-1" stroke="none" stroke-width="1" fill="none" fill-rule="evenodd">
        <g id="orders-copy-5" transform="translate(-459.000000, -396.000000)" fill="#282828" fill-rule="nonzero">
            <g id="previous-copy" transform="translate(459.000000, 396.000000)">
                <path d="M36.3540752,16.1936312 C33.3570229,12.5368909 27.7100345,8.18443676 17.7537251,7.81112685 L17.7537251,1.04064257 C17.7537251,0.641879711 17.5251364,0.268569801 17.1610876,0.0988834779 C16.7970389,-0.0708028449 16.3652602,-0.019896948 16.0604752,0.234632536 L0.380981226,13.1901833 C0.143926241,13.3853226 0,13.6822736 0,13.987709 C0,14.3016287 0.135459991,14.5900954 0.372514976,14.7852347 L16.052009,27.7916914 C16.3652602,28.0462208 16.7885727,28.1056111 17.1526214,27.9274404 C17.5166701,27.7577541 17.7452589,27.3929285 17.7452589,26.9856813 L17.7452589,20.24065 C24.2473384,20.2661029 34.1867153,20.749709 39.4611887,30.0739724 C39.6474462,30.4048607 39.9945624,30.6 40.3670774,30.6 C40.4517399,30.6 40.5448687,30.5915157 40.6295311,30.5660627 C41.0867086,30.4472823 41.3999598,30.0315508 41.3999598,29.5649134 C41.4084261,26.0778595 40.0792249,20.7412246 36.3540752,16.1936312 Z M16.7123764,18.1619925 C16.4329902,18.1619925 16.1705365,18.2722886 15.9758127,18.4674279 C15.781089,18.6625672 15.6710277,18.925581 15.6710277,19.2055634 L15.6710277,24.7797591 L2.67533483,13.9961933 L15.679494,3.24656477 L15.679494,8.82076047 C15.679494,9.38920965 16.1366715,9.85584704 16.7039102,9.86433135 C31.6045092,10.0085647 37.1583689,19.1122359 38.7754225,25.5094103 C32.3580054,18.1704769 22.7488123,18.1619925 16.7123764,18.1619925 Z" id="Shape"></path>
            </g>
        </g>
    </g>
</svg>