<?xml version="1.0" encoding="UTF-8"?>
<svg width="37px" height="37px" viewBox="0 0 37 37" version="1.1" xmlns="http://www.w3.org/2000/svg" xmlns:xlink="http://www.w3.org/1999/xlink">
    <!-- Generator: sketchtool 52.3 (67297) - http://www.bohemiancoding.com/sketch -->
    <title>14841222-1211-4D53-BB59-18EAD7B76F11</title>
    <desc>Created with sketchtool.</desc>
    <g id="Page-1" stroke="none" stroke-width="1" fill="none" fill-rule="evenodd">
        <g id="orders-copy-5" transform="translate(-690.000000, -392.000000)" fill="#282828" fill-rule="nonzero" stroke="#282828" stroke-width="0.5">
            <g id="warehouse-2-copy" transform="translate(691.000000, 393.000000)">
                <path d="M34.7450924,14.5673812 L18.2234127,0.251167359 C17.8368328,-0.083722453 17.2630986,-0.083722453 16.8765873,0.251167359 L0.354907617,14.5673812 C0.129499805,14.7626936 0,15.0463045 0,15.3445175 L0,34.0716792 C0,34.6395865 0.460413281,35.1 1.02832031,35.1 C1.3141248,35.1 33.7864922,35.1 34.0716797,35.1 C34.6395867,35.1 35.1,34.6395865 35.1,34.0716792 L35.1,15.3445175 C35.1,15.0463045 34.9705002,14.7626936 34.7450924,14.5673812 Z M26.8048828,33.0433584 L8.29511719,33.0433584 L8.29511719,30.4632329 L26.8048828,30.4632329 L26.8048828,33.0433584 Z M26.8048828,28.4066598 L8.29511719,28.4066598 L8.29511719,25.8265343 L26.8048828,25.8265343 L26.8048828,28.4066598 Z M26.8048828,23.7698927 L8.29511719,23.7698927 L8.29511719,21.1897672 L26.8048828,21.1897672 L26.8048828,23.7698927 Z M33.0433594,33.0433584 L28.8615234,33.0433584 L28.8615234,20.1614464 C28.8615234,19.5935391 28.4011102,19.1331256 27.8332031,19.1331256 L7.26679687,19.1331256 C6.69888984,19.1331256 6.23847656,19.5935391 6.23847656,20.1614464 L6.23847656,33.0433584 L2.05664062,33.0433584 L2.05664062,15.8141173 L17.55,2.38897778 L33.0433594,15.8141859 L33.0433594,33.0433584 Z" id="Shape"></path>
                <path d="M19.7628688,9.9 L16.2371312,9.9 C15.7195849,9.9 15.3,10.50435 15.3,11.25 C15.3,11.99556 15.7195849,12.6 16.2371312,12.6 L19.7628688,12.6 C20.2804151,12.6 20.7,11.99556 20.7,11.25 C20.7,10.50444 20.2804151,9.9 19.7628688,9.9 Z" id="Shape"></path>
            </g>
        </g>
    </g>
</svg>