<?xml version="1.0" encoding="UTF-8"?>
<svg width="121px" height="37px" viewBox="0 0 121 37" version="1.1" xmlns="http://www.w3.org/2000/svg" xmlns:xlink="http://www.w3.org/1999/xlink">
    <!-- Generator: sketchtool 52.3 (67297) - http://www.bohemiancoding.com/sketch -->
    <title>F2E36F83-4EFB-42D7-9626-D4FC399EB907</title>
    <desc>Created with sketchtool.</desc>
    <g id="Page-1" stroke="none" stroke-width="1" fill="none" fill-rule="evenodd">
        <g id="with-sale" transform="translate(-29.000000, -15.000000)" fill-rule="nonzero">
            <g id="logo-mimelon" transform="translate(29.000000, 15.000000)">
                <path d="M0.432142857,33.3717949 C-0.144047619,25.4794872 -0.144047619,17.5871795 0.432142857,9.74358974 C0.432142857,9.4025641 0.768253968,9.15897436 1.10436508,9.15897436 C1.68055556,9.20769231 2.20873016,9.25641026 2.78492063,9.30512821 C3.12103175,9.35384615 3.36111111,9.5974359 3.31309524,9.93846154 C3.31309524,10.0358974 3.31309524,10.1820513 3.26507937,10.2794872 C3.21706349,10.8153846 3.88928571,11.1564103 4.2734127,10.7666667 C4.8015873,10.2794872 5.3297619,9.88974359 5.85793651,9.64615385 C6.72222222,9.20769231 7.58650794,9.01282051 8.5468254,9.11025641 C9.50714286,9.20769231 10.2753968,9.5 10.8515873,10.0846154 C11.2837302,10.474359 11.6678571,11.0589744 12.0039683,11.7410256 C12.1960317,12.1307692 12.6761905,12.2282051 12.9642857,11.9358974 C13.7805556,11.2051282 14.5007937,10.6692308 15.2210317,10.3282051 C16.0853175,9.88974359 16.9496032,9.74358974 17.8619048,9.84102564 C19.2543651,9.93846154 20.2626984,10.5230769 20.8869048,11.4974359 C21.5111111,12.4717949 21.7511905,13.9333333 21.7031746,15.8820513 C21.5111111,21.1435897 21.6071429,26.4051282 21.943254,31.6666667 C21.9912698,32.3 21.5111111,32.8358974 20.8869048,32.8846154 L20.2146825,32.9333333 C19.5904762,32.9820513 19.0142857,32.4948718 19.0142857,31.8615385 C18.6781746,26.8435897 18.5821429,21.7769231 18.7261905,16.7589744 C18.7742063,15.2 18.6781746,14.0794872 18.3420635,13.4461538 C18.0059524,12.8128205 17.4297619,12.4717949 16.5654762,12.4230769 C15.8452381,12.374359 15.1730159,12.5692308 14.4527778,13.0564103 C13.1563492,13.9333333 12.3880952,15.3948718 12.3400794,16.9538462 C12.1960317,22.1179487 12.2920635,27.2333333 12.6761905,32.3487179 C12.7242063,32.9820513 12.2440476,33.5179487 11.6198413,33.5666667 C11.3797619,33.5666667 11.1876984,33.6153846 10.947619,33.6153846 C10.3234127,33.6641026 9.74722222,33.1769231 9.74722222,32.5435897 C9.36309524,27.1846154 9.26706349,21.7769231 9.45912698,16.3692308 C9.50714286,14.6641026 9.41111111,13.4948718 9.075,12.8615385 C8.73888889,12.1794872 8.16269841,11.8384615 7.2984127,11.7897436 C6.5781746,11.7410256 5.90595238,11.9846154 5.18571429,12.4717949 C4.99365079,12.6179487 4.75357143,12.8128205 4.56150794,13.0076923 C3.60119048,13.9333333 3.07301587,15.2 3.07301587,16.5153846 C2.78492063,22.1179487 2.92896825,27.6230769 3.31309524,33.1282051 C3.36111111,33.7615385 2.88095238,34.3461538 2.25674603,34.3948718 C2.06468254,34.3948718 1.82460317,34.4435897 1.63253968,34.4435897 C1.00833333,34.4923077 0.48015873,34.0051282 0.432142857,33.3717949 Z" id="Shape" fill="#FFFFFF"></path>
                <g id="Group" transform="translate(25.448413, 1.461538)" fill="#FFFFFF">
                    <path d="M1.87261905,1.70512821 C1.82460317,1.94871795 1.7765873,2.19230769 1.7765873,2.38717949 C1.63253968,3.26410256 2.16071429,4.09230769 2.97698413,4.23846154 C2.97698413,4.23846154 2.97698413,4.23846154 3.025,4.23846154 C3.79325397,4.38461538 4.56150794,3.8 4.70555556,2.92307692 C4.75357143,2.72820513 4.75357143,2.48461538 4.8015873,2.28974359 C4.94563492,1.41282051 4.46547619,0.584615385 3.64920635,0.38974359 C3.64920635,0.38974359 3.64920635,0.38974359 3.60119048,0.38974359 C2.78492063,0.243589744 2.01666667,0.828205128 1.87261905,1.70512821 Z" id="Shape"></path>
                    <path d="M1.58452381,31.6666667 L3.40912698,31.4230769 C3.69722222,31.374359 3.93730159,31.1307692 3.88928571,30.7897436 C3.07301587,23.8230769 3.025,16.7589744 3.69722222,9.79230769 C3.7452381,9.5 3.50515873,9.20769231 3.21706349,9.15897436 C2.59285714,9.11025641 2.01666667,9.01282051 1.39246032,8.96410256 C1.10436508,8.91538462 0.816269841,9.15897436 0.768253968,9.45128205 C0.096031746,16.7589744 0.144047619,24.0179487 0.96031746,31.1794872 C1.00833333,31.5205128 1.29642857,31.7153846 1.58452381,31.6666667 Z" id="Shape"></path>
                </g>
                <path d="M34.8115079,31.8615385 C33.3230159,25.0410256 33.3230159,18.025641 34.8115079,11.2051282 C34.8595238,10.9615385 35.0996032,10.7666667 35.3396825,10.7666667 L37.068254,10.7666667 C37.4043651,10.7666667 37.6924603,11.1076923 37.5964286,11.4487179 C37.5964286,11.4487179 37.5964286,11.4487179 37.5964286,11.4487179 C37.5003968,11.9358974 38.0765873,12.325641 38.4607143,12.0333333 C39.0849206,11.5461538 39.6611111,11.1564103 40.2373016,10.9128205 C41.1496032,10.474359 42.0619048,10.2307692 43.0222222,10.2307692 C43.9825397,10.2307692 44.7027778,10.474359 45.2309524,10.9615385 C45.6150794,11.3025641 45.9511905,11.7897436 46.1912698,12.374359 C46.3353175,12.7153846 46.7674603,12.8615385 47.0555556,12.6179487 C47.9678571,11.8384615 48.8321429,11.2538462 49.6003968,10.9128205 C50.5126984,10.474359 51.425,10.2307692 52.3373016,10.2307692 C53.7777778,10.2307692 54.6900794,10.6692308 55.1702381,11.5948718 C55.6503968,12.5205128 55.7464286,13.9333333 55.5063492,15.8820513 C54.9301587,21.0461538 55.1222222,26.2589744 56.1785714,31.374359 C56.322619,32.1051282 55.7464286,32.8358974 54.9781746,32.8358974 L54.4980159,32.8358974 C53.9218254,32.8358974 53.4416667,32.4461538 53.3456349,31.9102564 C52.2892857,26.9897436 52.0011905,21.9230769 52.4813492,16.9051282 C52.6253968,15.3461538 52.6253968,14.274359 52.3853175,13.6897436 C52.1452381,13.1051282 51.5690476,12.8128205 50.7047619,12.8128205 C49.9845238,12.8128205 49.2642857,13.0564103 48.4960317,13.5435897 C47.1035714,14.4205128 46.1912698,15.9307692 46.0472222,17.5871795 C45.6630952,22.2153846 45.9511905,26.8435897 46.8634921,31.374359 C47.0075397,32.1538462 46.4793651,32.8358974 45.7111111,32.8358974 L45.2309524,32.8358974 C44.6547619,32.8358974 44.1746032,32.4461538 44.0785714,31.9102564 C43.0222222,26.9897436 42.734127,21.9230769 43.2142857,16.9051282 C43.3583333,15.3461538 43.3583333,14.274359 43.0702381,13.6897436 C42.7821429,13.1051282 42.2539683,12.8128205 41.3896825,12.8128205 C40.6694444,12.8128205 39.9492063,13.0564103 39.1809524,13.5435897 L39.1329365,13.5923077 C37.7404762,14.4692308 36.8281746,15.9794872 36.7321429,17.6358974 C36.3480159,22.2153846 36.6361111,26.8923077 37.5484127,31.4230769 C37.6924603,32.2025641 37.1642857,32.8846154 36.3960317,32.8846154 L36.0119048,32.8846154 C35.4357143,32.7871795 34.9555556,32.3974359 34.8115079,31.8615385 Z" id="Shape" fill="#FFFFFF"></path>
                <path d="M70.1511905,25.3333333 C70.6793651,25.2846154 71.2075397,25.2846154 71.7357143,25.2358974 C72.0238095,25.2358974 72.3119048,25.4794872 72.3119048,25.7717949 C72.4079365,28.0128205 72.1678571,29.7666667 71.4956349,31.0820513 C70.7753968,32.4948718 69.575,33.274359 67.8464286,33.3717949 C65.6857143,33.5179487 63.7650794,32.6410256 62.2765873,30.7897436 C60.7880952,28.9384615 59.6357143,26.0153846 59.2996032,22.0692308 C59.0115079,18.074359 59.7797619,15.1512821 61.0761905,13.2512821 C62.372619,11.3512821 64.293254,10.3769231 66.5980159,10.2794872 C68.7587302,10.1820513 70.1992063,10.9128205 71.0634921,12.5205128 C71.9277778,14.1282051 72.1678571,16.6128205 72.1678571,19.974359 C72.1678571,20.4615385 72.1678571,20.8025641 72.1678571,21.0461538 C72.1678571,21.2897436 72.0718254,21.7769231 71.1115079,21.7769231 C67.9904762,21.9717949 65.9257937,22.0692308 62.8047619,22.2641026 C62.4686508,22.2641026 62.2765873,22.5564103 62.2765873,22.8974359 C62.5646825,25.674359 63.2369048,27.7205128 64.0051587,28.8897436 C64.8214286,30.1564103 65.8777778,30.7897436 67.1261905,30.6923077 C68.1345238,30.6435897 68.806746,30.1564103 69.190873,29.2307692 C69.5269841,28.4025641 69.6230159,27.2820513 69.575,25.8692308 C69.6230159,25.625641 69.8150794,25.3820513 70.1511905,25.3333333 Z M62.8047619,19.8282051 C64.7734127,19.7307692 66.6940476,19.6333333 68.6626984,19.4871795 C68.9507937,19.4871795 69.190873,19.2435897 69.190873,18.9512821 C69.190873,18.8538462 69.190873,18.7564103 69.190873,18.6102564 C69.2388889,16.4666667 69.0948413,14.9564103 68.6626984,14.0307692 C68.2305556,13.1051282 67.4142857,12.7153846 66.2138889,12.7641026 C65.0615079,12.8128205 64.1011905,13.3974359 63.3809524,14.5666667 C62.756746,15.5897436 62.3246032,17.1487179 62.2285714,19.2435897 C62.1805556,19.5846154 62.4686508,19.8769231 62.8047619,19.8282051 Z" id="Shape" fill="#FFFFFF"></path>
                <path d="M80.3305556,33.7615385 C73.8964286,23.8230769 73.7043651,10.9615385 79.802381,0.730769231 C79.9464286,0.438461538 80.3305556,0.38974359 80.5706349,0.535897436 C81.2428571,0.974358974 81.9150794,1.46153846 82.5873016,1.9 C82.827381,2.04615385 82.9234127,2.43589744 82.7313492,2.67948718 C76.9214286,11.6435897 76.7293651,23.2384615 82.2031746,32.4948718 C82.3472222,32.7384615 82.2992063,33.0794872 82.059127,33.274359 C81.7230159,33.5179487 81.3869048,33.7128205 81.0507937,33.9564103 C80.8107143,34.1025641 80.4746032,34.0538462 80.3305556,33.7615385 Z" id="Shape" fill="#FFFFFF"></path>
                <path d="M106.547222,32.3 C108.948016,25.5282051 108.996032,18.074359 106.739286,11.2538462 C106.643254,10.9615385 106.787302,10.6692308 107.075397,10.5230769 C107.651587,10.3282051 108.179762,10.1333333 108.755952,9.93846154 C109.044048,9.84102564 109.380159,9.98717949 109.47619,10.2794872 C109.524206,10.425641 109.572222,10.6205128 109.620238,10.7666667 C109.764286,11.2538462 110.436508,11.3025641 110.628571,10.8153846 C110.964683,10.0846154 111.300794,9.5 111.684921,8.96410256 C112.261111,8.18461538 112.981349,7.6 113.845635,7.25897436 C115.190079,6.77179487 116.390476,6.96666667 117.446825,7.98974359 C118.503175,9.01282051 119.415476,10.9128205 119.895635,13.5923077 C121.240079,21.2410256 120.615873,29.2307692 117.975,36.6358974 C117.878968,36.9282051 117.542857,37.074359 117.254762,36.9769231 L115.574206,36.3435897 C115.286111,36.2461538 115.142063,35.9051282 115.238095,35.6128205 C117.542857,29.0846154 118.215079,22.1666667 117.254762,15.3948718 C116.966667,13.3487179 116.438492,12.0333333 115.910317,11.3512821 C115.382143,10.6692308 114.661905,10.5230769 113.797619,10.7666667 C113.077381,10.9615385 112.50119,11.4974359 111.973016,12.2282051 C111.973016,12.2282051 111.973016,12.2282051 111.973016,12.2282051 C111.060714,13.5435897 110.772619,15.1512821 110.964683,16.7102564 C111.684921,22.2641026 111.156746,27.9153846 109.236111,33.225641 C109.140079,33.5179487 108.803968,33.6641026 108.515873,33.5666667 L106.835317,32.9333333 C106.595238,32.8846154 106.45119,32.5435897 106.547222,32.3 Z" id="Shape" fill="#FFFFFF"></path>
                <ellipse id="Oval" fill="#EBC733" transform="translate(93.490544, 19.972863) rotate(-10.142398) translate(-93.490544, -19.972863) " cx="93.4905444" cy="19.9728633" rx="11.8602442" ry="15.6876075"></ellipse>
            </g>
        </g>
    </g>
</svg>