<?xml version="1.0" encoding="utf-8"?>
<!-- Generator: Adobe Illustrator 22.0.1, SVG Export Plug-In . SVG Version: 6.00 Build 0)  -->
<svg version="1.1" id="Layer_1" xmlns="http://www.w3.org/2000/svg" xmlns:xlink="http://www.w3.org/1999/xlink" x="0px" y="0px"
	 viewBox="0 0 121 37" style="enable-background:new 0 0 121 37;" xml:space="preserve">
<style type="text/css">
	.st0{fill:#231F20;}
	.st1{fill:#EBC733;}
</style>
<title>F2E36F83-4EFB-42D7-9626-D4FC399EB907</title>
<desc>Created with sketchtool.</desc>
<g id="logo-mimelon" transform="translate(29.000000, 15.000000)">
	<path id="Shape" class="st0" d="M-28.6,18.4c-0.6-7.9-0.6-15.8,0-23.6c0-0.3,0.3-0.6,0.7-0.6c0.6,0,1.1,0.1,1.7,0.1
		c0.3,0,0.6,0.3,0.5,0.6c0,0.1,0,0.2,0,0.3c0,0.5,0.6,0.9,1,0.5c0.5-0.5,1.1-0.9,1.6-1.1c0.9-0.4,1.7-0.6,2.7-0.5s1.7,0.4,2.3,1
		c0.4,0.4,0.8,1,1.2,1.7c0.2,0.4,0.7,0.5,1,0.2c0.8-0.7,1.5-1.3,2.3-1.6c0.9-0.4,1.7-0.6,2.6-0.5c1.4,0.1,2.4,0.7,3,1.7
		c0.6,1,0.9,2.4,0.8,4.4c-0.2,5.3-0.1,10.5,0.2,15.8c0,0.6-0.4,1.2-1.1,1.2l-0.7,0c-0.6,0-1.2-0.4-1.2-1.1c-0.3-5-0.4-10.1-0.3-15.1
		c0-1.6,0-2.7-0.4-3.3s-0.9-1-1.8-1c-0.7,0-1.4,0.1-2.1,0.6c-1.3,0.9-2.1,2.3-2.1,3.9c-0.1,5.2,0,10.3,0.3,15.4
		c0,0.6-0.4,1.2-1.1,1.2c-0.2,0-0.4,0-0.7,0c-0.6,0-1.2-0.4-1.2-1.1c-0.4-5.4-0.5-10.8-0.3-16.2c0-1.7,0-2.9-0.4-3.5
		c-0.3-0.7-0.9-1-1.8-1.1c-0.7,0-1.4,0.2-2.1,0.7C-24-2.4-24.2-2.2-24.4-2c-1,0.9-1.5,2.2-1.5,3.5c-0.3,5.6-0.1,11.1,0.2,16.6
		c0,0.6-0.4,1.2-1.1,1.3c-0.2,0-0.4,0-0.6,0C-28,19.5-28.5,19-28.6,18.4z"/>
	<g id="Group" transform="translate(25.448413, 1.461538)">
		<path id="Shape_1_" class="st0" d="M-27.1-13.3c0,0.2-0.1,0.5-0.1,0.7c-0.1,0.9,0.4,1.7,1.2,1.9c0,0,0,0,0,0
			c0.8,0.1,1.5-0.4,1.7-1.3c0-0.2,0-0.4,0.1-0.6c0.1-0.9-0.3-1.7-1.2-1.9c0,0,0,0,0,0C-26.2-14.8-27-14.2-27.1-13.3z"/>
		<path id="Shape_2_" class="st0" d="M-27.4,16.7l1.8-0.2c0.3,0,0.5-0.3,0.5-0.6c-0.8-7-0.9-14-0.2-21c0-0.3-0.2-0.6-0.5-0.6
			C-26.4-5.9-27-6-27.6-6c-0.3,0-0.6,0.2-0.6,0.5C-28.9,1.8-28.9,9-28,16.2C-28,16.5-27.7,16.7-27.4,16.7z"/>
	</g>
	<path id="Shape_3_" class="st0" d="M5.8,16.9C4.3,10,4.3,3,5.8-3.8c0-0.2,0.3-0.4,0.5-0.4h1.7c0.3,0,0.6,0.3,0.5,0.7l0,0
		C8.5-3.1,9.1-2.7,9.5-3c0.6-0.5,1.2-0.9,1.8-1.1c0.9-0.4,1.8-0.7,2.8-0.7c1,0,1.7,0.2,2.2,0.7c0.4,0.3,0.7,0.8,1,1.4
		c0.1,0.3,0.6,0.5,0.9,0.2c0.9-0.8,1.8-1.4,2.5-1.7c0.9-0.4,1.8-0.7,2.7-0.7c1.4,0,2.4,0.4,2.8,1.4s0.6,2.3,0.3,4.3
		c-0.6,5.2-0.4,10.4,0.7,15.5c0.1,0.7-0.4,1.5-1.2,1.5h-0.5c-0.6,0-1.1-0.4-1.2-0.9c-1.1-4.9-1.3-10-0.9-15c0.1-1.6,0.1-2.6-0.1-3.2
		c-0.2-0.6-0.8-0.9-1.7-0.9c-0.7,0-1.4,0.2-2.2,0.7c-1.4,0.9-2.3,2.4-2.4,4c-0.4,4.6-0.1,9.3,0.8,13.8c0.1,0.8-0.4,1.5-1.2,1.5h-0.5
		c-0.6,0-1.1-0.4-1.2-0.9c-1.1-4.9-1.3-10-0.9-15c0.1-1.6,0.1-2.6-0.1-3.2c-0.3-0.6-0.8-0.9-1.7-0.9c-0.7,0-1.4,0.2-2.2,0.7l0,0
		C8.7-0.5,7.8,1,7.7,2.6c-0.4,4.6-0.1,9.3,0.8,13.8c0.1,0.8-0.4,1.5-1.2,1.5H7C6.4,17.8,6,17.4,5.8,16.9z"/>
	<path id="Shape_4_" class="st0" d="M41.2,10.3c0.5,0,1.1,0,1.6-0.1c0.3,0,0.6,0.2,0.6,0.5c0.1,2.2-0.1,4-0.8,5.3
		c-0.7,1.4-1.9,2.2-3.6,2.3c-2.2,0.1-4.1-0.7-5.6-2.6c-1.5-1.9-2.6-4.8-3-8.7c-0.3-4,0.5-6.9,1.8-8.8s3.2-2.9,5.5-3
		c2.2-0.1,3.6,0.6,4.5,2.2s1.1,4.1,1.1,7.5c0,0.5,0,0.8,0,1.1s-0.1,0.7-1.1,0.7C39,7,36.9,7.1,33.8,7.3c-0.3,0-0.5,0.3-0.5,0.6
		c0.3,2.8,1,4.8,1.7,6c0.8,1.3,1.9,1.9,3.1,1.8c1,0,1.7-0.5,2.1-1.5c0.3-0.8,0.4-1.9,0.4-3.4C40.6,10.6,40.8,10.4,41.2,10.3z
		 M33.8,4.8c2-0.1,3.9-0.2,5.9-0.3c0.3,0,0.5-0.2,0.5-0.5c0-0.1,0-0.2,0-0.3c0-2.1-0.1-3.7-0.5-4.6s-1.2-1.3-2.4-1.3
		c-1.2,0-2.1,0.6-2.8,1.8c-0.6,1-1.1,2.6-1.2,4.7C33.2,4.6,33.5,4.9,33.8,4.8z"/>
	<path id="Shape_5_" class="st0" d="M51.3,18.8c-6.4-9.9-6.6-22.8-0.5-33c0.1-0.3,0.5-0.3,0.8-0.2c0.7,0.4,1.3,0.9,2,1.4
		c0.2,0.1,0.3,0.5,0.1,0.8c-5.8,9-6,20.6-0.5,29.8c0.1,0.2,0.1,0.6-0.1,0.8c-0.3,0.2-0.7,0.4-1,0.7C51.8,19.1,51.5,19.1,51.3,18.8z"
		/>
	<path id="Shape_6_" class="st0" d="M77.5,17.3c2.4-6.8,2.4-14.2,0.2-21c-0.1-0.3,0-0.6,0.3-0.7c0.6-0.2,1.1-0.4,1.7-0.6
		c0.3-0.1,0.6,0,0.7,0.3c0,0.1,0.1,0.3,0.1,0.5c0.1,0.5,0.8,0.5,1,0C82-4.9,82.3-5.5,82.7-6c0.6-0.8,1.3-1.4,2.2-1.7
		C86.2-8.2,87.4-8,88.4-7s2,2.9,2.4,5.6c1.3,7.6,0.7,15.6-1.9,23c-0.1,0.3-0.4,0.4-0.7,0.3l-1.7-0.6c-0.3-0.1-0.4-0.4-0.3-0.7
		c2.3-6.5,3-13.4,2-20.2c-0.3-2-0.8-3.4-1.3-4c-0.5-0.7-1.2-0.8-2.1-0.6C84.1-4,83.5-3.5,83-2.8l0,0c-0.9,1.3-1.2,2.9-1,4.5
		c0.7,5.6,0.2,11.2-1.7,16.5c-0.1,0.3-0.4,0.4-0.7,0.3l-1.7-0.6C77.6,17.9,77.5,17.5,77.5,17.3z"/>
	
		<ellipse id="Oval" transform="matrix(0.9844 -0.1761 0.1761 0.9844 0.1321 11.4342)" class="st1" cx="64.5" cy="5" rx="11.9" ry="15.7"/>
</g>
</svg>
