<?xml version="1.0" encoding="UTF-8"?>
<svg width="29px" height="29px" viewBox="0 0 29 29" version="1.1" xmlns="http://www.w3.org/2000/svg" xmlns:xlink="http://www.w3.org/1999/xlink">
    <!-- Generator: sketchtool 52.3 (67297) - http://www.bohemiancoding.com/sketch -->
    <title>8E1569DB-7568-4194-9708-5EAB4F53A426</title>
    <desc>Created with sketchtool.</desc>
    <g id="Page-1" stroke="none" stroke-width="1" fill="none" fill-rule="evenodd">
        <g id="with-sale" transform="translate(-229.000000, -707.000000)" fill-rule="nonzero">
            <g id="Group-12" transform="translate(229.000000, 707.000000)">
                <circle id="Oval-3" fill="#000000" opacity="0.2" cx="14.4" cy="14.4" r="14.4"></circle>
                <g id="heart-copy" transform="translate(7.000000, 9.000000)" stroke="#FFFFFF">
                    <path d="M13.7884101,1.20689655 C13.0029551,0.432601881 11.9631017,0.00940438871 10.8532887,0.00940438871 C9.74347573,0.00940438871 8.70044234,0.435736677 7.91498731,1.21003135 L7.50476991,1.61442006 L7.08819254,1.20376176 C6.30273752,0.429467085 5.25652414,0 4.14671116,0 C3.04007817,0 1.99704477,0.426332288 1.21476972,1.19749216 C0.429314695,1.97178683 -0.0031625672,3 1.74126703e-05,4.09404389 C1.74126703e-05,5.18808777 0.435674655,6.21316614 1.22112968,6.98746082 L7.19313188,12.8746082 C7.27581136,12.9561129 7.38711065,13 7.49522997,13 C7.60334928,13 7.71464858,12.9592476 7.79732805,12.8777429 L13.7820502,7 C14.5675052,6.22570533 14.9999825,5.19749216 14.9999825,4.10344828 C15.0031624,3.00940439 14.5738652,1.98119122 13.7884101,1.20689655 Z" id="Shape"></path>
                </g>
            </g>
        </g>
    </g>
</svg>