<?xml version="1.0" encoding="UTF-8"?>
<svg width="29px" height="29px" viewBox="0 0 29 29" version="1.1" xmlns="http://www.w3.org/2000/svg" xmlns:xlink="http://www.w3.org/1999/xlink">
    <!-- Generator: sketchtool 52.3 (67297) - http://www.bohemiancoding.com/sketch -->
    <title>DA1414FB-C22C-49CD-A745-C70FF9C59DC9</title>
    <desc>Created with sketchtool.</desc>
    <g id="Page-1" stroke="none" stroke-width="1" fill="none" fill-rule="evenodd">
        <g id="with-sale" transform="translate(-227.000000, -818.000000)" fill-rule="nonzero">
            <g id="Group-7-Copy-2" transform="translate(227.000000, 818.000000)">
                <circle id="Oval-3" fill="#33B450" cx="14.4" cy="14.4" r="14.4"></circle>
                <g id="shopping-cart-copy" transform="translate(9.360000, 7.200000)" fill="#FFFFFF">
                    <path d="M0.535186978,12.122069 L1.16174734,12.122069 C0.730987092,12.8911034 0.83541382,13.8817241 1.48808087,14.5334483 C1.86662775,14.9114483 2.37570805,15.12 2.92394837,15.12 C3.47218869,15.12 3.96821564,14.9114483 4.35981587,14.5334483 C4.73836276,14.1554483 4.94721621,13.6471034 4.94721621,13.0996552 C4.94721621,12.7477241 4.85584283,12.4218621 4.6861494,12.122069 L7.2054442,12.122069 C6.77468394,12.8911034 6.87911067,13.8817241 7.53177772,14.5334483 C7.91032461,14.9114483 8.4194049,15.12 8.96764522,15.12 C9.51588554,15.12 10.0119125,14.9114483 10.4035127,14.5334483 C10.7820596,14.1554483 10.9909131,13.6471034 10.9909131,13.0996552 C10.9909131,12.7477241 10.8995397,12.4218621 10.7298462,12.122069 L11.40862,12.122069 C11.7088468,12.122069 11.943807,11.8874483 11.943807,11.5876552 C11.943807,11.2878621 11.7088468,11.0532414 11.40862,11.0532414 L1.07037396,11.0532414 L1.07037396,10.0104828 L12.8183808,10.0104828 C13.0533409,10.0104828 13.2621944,9.85406897 13.3274611,9.61944828 L15.1027155,3.14131034 C15.1418755,2.98489655 15.1157688,2.81544828 15.0113421,2.68510345 C14.9069153,2.55475862 14.7502753,2.47655172 14.5936352,2.47655172 L1.07037396,2.47655172 L1.07037396,0.534413793 C1.07037396,0.23462069 0.83541382,0 0.535186978,0 C0.234960137,0 0,0.23462069 0,0.534413793 L0,2.99793103 L0,9.47606897 L0,11.5746207 C-2.31873914e-16,11.8874483 0.234960137,12.122069 0.535186978,12.122069 Z M8.27581815,12.4218621 C8.45856492,12.2393793 8.69352506,12.1351034 8.95459188,12.1351034 C9.2156587,12.1351034 9.45061884,12.2393793 9.63336561,12.4218621 C9.81611238,12.6043448 9.92053911,12.8389655 9.92053911,13.0996552 C9.92053911,13.3603448 9.81611238,13.5949655 9.63336561,13.7774483 C9.26787206,14.1424138 8.6413117,14.1424138 8.27581815,13.7774483 C7.89727126,13.3994483 7.89727126,12.7998621 8.27581815,12.4218621 Z M2.24517464,12.4218621 C2.42792141,12.2393793 2.66288155,12.1351034 2.92394837,12.1351034 C3.18501519,12.1351034 3.41997532,12.2393793 3.6027221,12.4218621 C3.78546887,12.6043448 3.8898956,12.8389655 3.8898956,13.0996552 C3.8898956,13.3603448 3.78546887,13.5949655 3.6027221,13.7774483 C3.23722855,14.1424138 2.61066819,14.1424138 2.24517464,13.7774483 C1.86662775,13.3994483 1.86662775,12.7998621 2.24517464,12.4218621 Z M1.07037396,3.53234483 L13.8887548,3.53234483 L12.4006739,8.95468966 L1.07037396,8.95468966 L1.07037396,3.53234483 Z" id="Shape"></path>
                </g>
                <g id="Group-4" transform="translate(2.880000, 10.800000)" fill="#FFFFFF" stroke="#FFFFFF" stroke-width="0.5">
                    <path d="M2.52,-0.25 C2.8568937,-0.25 3.13,0.0231063026 3.13,0.36 L3.13,4.68 C3.13,5.0168937 2.8568937,5.29 2.52,5.29 C2.1831063,5.29 1.91,5.0168937 1.91,4.68 L1.91,0.36 C1.91,0.0231063026 2.1831063,-0.25 2.52,-0.25 Z" id="Rectangle-7"></path>
                    <path d="M2.52,-0.25 C2.8568937,-0.25 3.13,0.0231063026 3.13,0.36 L3.13,4.68 C3.13,5.0168937 2.8568937,5.29 2.52,5.29 C2.1831063,5.29 1.91,5.0168937 1.91,4.68 L1.91,0.36 C1.91,0.0231063026 2.1831063,-0.25 2.52,-0.25 Z" id="Rectangle-7-Copy" transform="translate(2.520000, 2.520000) rotate(-270.000000) translate(-2.520000, -2.520000) "></path>
                </g>
            </g>
        </g>
    </g>
</svg>