<?xml version="1.0" encoding="UTF-8"?>
<svg width="17px" height="12px" viewBox="0 0 17 12" version="1.1" xmlns="http://www.w3.org/2000/svg" xmlns:xlink="http://www.w3.org/1999/xlink">
    <!-- Generator: sketchtool 52.3 (67297) - http://www.bohemiancoding.com/sketch -->
    <title>E1B95FF9-72E3-4331-B81C-BE0E651F68F1</title>
    <desc>Created with sketchtool.</desc>
    <g id="Page-1" stroke="none" stroke-width="1" fill="none" fill-rule="evenodd">
        <g id="Payment-methods-0" transform="translate(-514.000000, -369.000000)" fill="#FFFFFF">
            <g id="82426" transform="translate(514.000000, 369.000000)">
                <g id="82425">
                    <path d="M15.0029474,0.0334698795 L1.93077328,0.0334698795 C0.866174089,0.0334698795 0,0.943228916 0,2.06139759 L0,9.94127711 C0,11.0594458 0.866174089,11.9692048 1.93077328,11.9692048 L15.0030162,11.9692048 C16.0676154,11.9692048 16.9337895,11.0594458 16.9337895,9.94127711 L16.9337895,2.06139759 C16.9337206,0.943228916 16.0676154,0.0334698795 15.0029474,0.0334698795 Z M1.93077328,1.19009639 L15.0030162,1.19009639 C15.4604332,1.19009639 15.8325749,1.58096386 15.8325749,2.06139759 L15.8325749,2.8346747 L1.10121457,2.8346747 L1.10121457,2.06139759 C1.10121457,1.58096386 1.47335628,1.19009639 1.93077328,1.19009639 Z M15.0029474,10.8125783 L1.93077328,10.8125783 C1.47335628,10.8125783 1.10121457,10.4217108 1.10121457,9.94127711 L1.10121457,5.33522892 L15.8325061,5.33522892 L15.8325061,9.94127711 C15.8325061,10.4217108 15.4603644,10.8125783 15.0029474,10.8125783 Z" id="Shape" fill-rule="nonzero"></path>
                    <ellipse id="Oval" cx="14.2164966" cy="8.66424973" rx="1" ry="1"></ellipse>
                    <ellipse id="Oval" cx="12.5746545" cy="8.66424973" rx="1" ry="1"></ellipse>
                    <ellipse id="Oval" cx="10.9328124" cy="8.66424973" rx="1" ry="1"></ellipse>
                    <ellipse id="Oval" cx="7.00106343" cy="8.66424973" rx="1" ry="1"></ellipse>
                    <ellipse id="Oval" cx="5.35922132" cy="8.66424973" rx="1" ry="1"></ellipse>
                    <ellipse id="Oval" cx="8.64290553" cy="8.66424973" rx="1" ry="1"></ellipse>
                </g>
            </g>
        </g>
    </g>
</svg>