<?xml version="1.0" encoding="UTF-8"?>
<svg width="18px" height="16px" viewBox="0 0 18 16" version="1.1" xmlns="http://www.w3.org/2000/svg" xmlns:xlink="http://www.w3.org/1999/xlink">
    <!-- Generator: sketchtool 52.3 (67297) - http://www.bohemiancoding.com/sketch -->
    <title>7B5D1837-3E39-4773-BFE8-C774D6CC2F53</title>
    <desc>Created with sketchtool.</desc>
    <g id="Page-1" stroke="none" stroke-width="1" fill="none" fill-rule="evenodd">
        <g id="bag" transform="translate(-1285.000000, -84.000000)" fill="transparent" fill-rule="nonzero" stroke="#ffffff" stroke-width="1">
            <g id="heart" transform="translate(1286.000000, 85.000000)">
                <path d="M14.698339,1.31253365 C13.8610508,0.481283654 12.7525763,0.0269567308 11.5695254,0.0269567308 C10.3864746,0.0269567308 9.27461017,0.484649038 8.43732203,1.31589904 L8.0000339,1.75003365 L7.5559661,1.30916827 C6.71867797,0.477918269 5.60342373,0.0168605769 4.42037288,0.0168605769 C3.24071186,0.0168605769 2.12884746,0.474552885 1.29494915,1.3024375 C0.457661017,2.1336875 -0.0033559322,3.23753365 3.38983051e-05,4.41205288 C3.38983051e-05,5.58657212 0.464440678,6.68705288 1.30172881,7.51830288 L7.66783051,13.8384952 C7.7559661,13.9259952 7.87461017,13.9731106 7.98986441,13.9731106 C8.10511864,13.9731106 8.22376271,13.9293606 8.31189831,13.8418606 L14.6915593,7.53176442 C15.5288475,6.70051442 15.9898644,5.59666827 15.9898644,4.42214904 C15.9932542,3.24762981 15.5356271,2.14378365 14.698339,1.31253365 Z" id="Shape"></path>
            </g>
        </g>
    </g>
</svg>