<?xml version="1.0" encoding="UTF-8"?>
<svg width="14px" height="18px" viewBox="0 0 14 18" version="1.1" xmlns="http://www.w3.org/2000/svg" xmlns:xlink="http://www.w3.org/1999/xlink">
    <!-- Generator: sketchtool 52.3 (67297) - http://www.bohemiancoding.com/sketch -->
    <title>09ED39F0-01B7-43FB-89EE-58E0146A0E63</title>
    <desc>Created with sketchtool.</desc>
    <g id="Page-1" stroke="none" stroke-width="1" fill="none" fill-rule="evenodd">
        <g id="orders" transform="translate(-813.000000, -547.000000)" fill="#111111" fill-rule="nonzero" stroke="#111111" stroke-width="0.5">
            <g id="131003" transform="translate(814.000000, 548.000000)">
                <path d="M6,8.77333333 C4.52978811,8.77333333 3.33333333,7.55316432 3.33333333,6.05333333 C3.33333333,4.55350235 4.52931854,3.33333333 6,3.33333333 C7.47068146,3.33333333 8.66666667,4.55350235 8.66666667,6.05333333 C8.66666667,7.55316432 7.47021189,8.77333333 6,8.77333333 Z M6,3.81268545 C4.78851911,3.81268545 3.80289957,4.81784038 3.80289957,6.05381221 C3.80289957,7.28978404 4.78851911,8.29493897 6,8.29493897 C7.21148089,8.29493897 8.19710043,7.28978404 8.19710043,6.05381221 C8.19710043,4.81784038 7.21148089,3.81268545 6,3.81268545 Z" id="Shape"></path>
                <path d="M6,16 C5.92737384,16 5.85867343,15.9686794 5.81205529,15.9137479 C5.57454813,15.6357175 0,9.06417708 0,5.89260654 C0,2.64345731 2.6915842,0 6,0 C9.3084158,0 12,2.64345731 12,5.89260654 C12,9.06465894 6.42545187,15.6357175 6.18843543,15.9142298 C6.14132657,15.9686794 6.07213544,16 6,16 Z M6,0.481855142 C2.96196941,0.481855142 0.490717265,2.90895949 0.490717265,5.89260654 C0.490717265,8.57702153 5.01316758,14.1877428 6,15.3793706 C6.9863417,14.187261 11.5092827,8.57653968 11.5092827,5.89260654 C11.508792,2.90895949 9.03753987,0.481855142 6,0.481855142 Z" id="Shape"></path>
            </g>
        </g>
    </g>
</svg>