<?xml version="1.0" encoding="UTF-8"?>
<svg width="18px" height="18px" viewBox="0 0 18 18" version="1.1" xmlns="http://www.w3.org/2000/svg" xmlns:xlink="http://www.w3.org/1999/xlink">
    <!-- Generator: sketchtool 52.3 (67297) - http://www.bohemiancoding.com/sketch -->
    <title>2240CB9C-F608-4C96-B599-0B4C16A577EA</title>
    <desc>Created with sketchtool.</desc>
    <g id="Page-1" stroke="none" stroke-width="1" fill="none" fill-rule="evenodd">
        <g id="bag" transform="translate(-1285.000000, -26.000000)" fill-rule="nonzero" stroke-width="0.2">
            <g id="Group-13" transform="translate(1286.000000, 27.000000)">
                <path d="M13.6517886,2.34418605 C12.1397378,0.832135307 10.1338182,0 7.99597463,0 C5.85813108,0 3.85221142,0.832135307 2.34016068,2.34418605 C-0.582460888,5.26680761 -0.785420719,9.94503171 1.83614376,13.1010571 C1.57906131,13.6186047 1.16637632,14.2207188 0.554114165,14.5217759 C0.25982241,14.6672304 0.0940718816,14.9818182 0.144811839,15.3065539 C0.195551797,15.6312896 0.445868922,15.8849894 0.770604651,15.9357294 C0.922824524,15.959408 1.13931501,15.9830867 1.40316279,15.9830867 C2.11013953,15.9830867 3.152,15.8173362 4.21753911,15.0494715 C5.40485412,15.6887949 6.70379704,16 7.99259197,16 C10.0627822,16 12.1126765,15.1983087 13.6551712,13.655814 C15.167222,12.1437632 15.9993573,10.1378436 15.9993573,8 C15.9993573,5.86215645 15.1638393,3.85623679 13.6517886,2.34418605 Z" id="Shape" stroke="#C6A417" fill="#C6A417"></path>
                <circle id="Oval" stroke="#2A2A2A" fill="#202020" cx="7.99597463" cy="8" r="1"></circle>
                <circle id="Oval" stroke="#2A2A2A" fill="#202020" cx="10.8915349" cy="8" r="1"></circle>
                <circle id="Oval" stroke="#2A2A2A" fill="#202020" cx="5.10041438" cy="8" r="1"></circle>
            </g>
        </g>
    </g>
</svg>