<?xml version="1.0" encoding="UTF-8"?>
<svg width="15px" height="19px" viewBox="0 0 15 19" version="1.1" xmlns="http://www.w3.org/2000/svg" xmlns:xlink="http://www.w3.org/1999/xlink">
    <!-- Generator: sketchtool 52.3 (67297) - http://www.bohemiancoding.com/sketch -->
    <title>4080619A-F0CD-44AA-90DB-C12894EA15F9</title>
    <desc>Created with sketchtool.</desc>
    <g id="Page-1" stroke="none" stroke-width="1" fill="none" fill-rule="evenodd">
        <g id="84834895309592" transform="translate(-332.000000, -96.000000)" fill="#202020" fill-rule="nonzero" stroke="#202020" stroke-width="0.2">
            <g id="1008010" transform="translate(333.000000, 97.000000)">
                <path d="M12.9915788,14.018957 L12.2594483,4.45260547 C12.2138202,3.83628906 11.7111749,3.35348242 11.1150961,3.35348242 L9.66899015,3.35348242 L9.66899015,3.28608008 C9.66899015,1.47411914 8.24741133,0 6.50003202,0 C4.75265271,0 3.33107389,1.47411914 3.33107389,3.28608008 L3.33107389,3.35348242 L1.885,3.35348242 C1.28888916,3.35348242 0.786211823,3.83625586 0.740743842,4.45131055 L0.00838916256,14.020252 C-0.0482857143,14.7864141 0.20803202,15.5491895 0.711573892,16.1129121 C1.21511576,16.6766348 1.92893103,17 2.66996305,17 L10.330069,17 C11.071069,17 11.7849163,16.676668 12.2884901,16.1129121 C12.792032,15.5491562 13.0483177,14.7864141 12.9915788,14.018957 Z M4.29134483,3.28608008 C4.29134483,2.02319922 5.28219458,0.995761719 6.50003202,0.995761719 C7.71786946,0.995761719 8.70871921,2.02323242 8.70871921,3.28608008 L8.70871921,3.35348242 L4.29134483,3.35348242 L4.29134483,3.28608008 Z M11.5839606,15.4362988 C11.2567833,15.8025293 10.8115172,16.0042383 10.330069,16.0042383 L2.66999507,16.0042383 C2.1885468,16.0042383 1.74328079,15.8025293 1.41610345,15.4362988 C1.08895813,15.0700352 0.929051724,14.594168 0.965810345,14.0977148 L1.69810099,4.52874023 C1.70552956,4.42806836 1.78762808,4.34924414 1.885,4.34924414 L3.33107389,4.34924414 L3.33107389,5.57560156 C3.33107389,5.85055664 3.54605419,6.07348242 3.81120936,6.07348242 C4.07636453,6.07348242 4.29134483,5.85055664 4.29134483,5.57560156 L4.29134483,4.34924414 L8.70871921,4.34924414 L8.70871921,5.57560156 C8.70871921,5.85055664 8.92369951,6.07348242 9.18885468,6.07348242 C9.45400985,6.07348242 9.66899015,5.85055664 9.66899015,5.57560156 L9.66899015,4.34924414 L11.1150961,4.34924414 C11.212436,4.34924414 11.2945345,4.42810156 11.3020911,4.53006836 L12.0342217,14.0963867 C12.0710443,14.594168 11.9111059,15.070002 11.5839606,15.4362988 Z" id="Shape"></path>
            </g>
        </g>
    </g>
</svg>