<?xml version="1.0" encoding="UTF-8"?>
<svg width="15px" height="19px" viewBox="0 0 15 19" version="1.1" xmlns="http://www.w3.org/2000/svg" xmlns:xlink="http://www.w3.org/1999/xlink">
    <!-- Generator: sketchtool 52.3 (67297) - http://www.bohemiancoding.com/sketch -->
    <title>E26FDE09-C8D8-4450-A714-8CB2651824B3</title>
    <desc>Created with sketchtool.</desc>
    <g id="Page-1" stroke="none" stroke-width="1" fill="none" fill-rule="evenodd">
        <g id="84834895309592" transform="translate(-333.000000, -158.000000)" fill="#FE5252" fill-rule="nonzero" stroke="#FE5252" stroke-width="0.2">
            <g id="1008010" transform="translate(334.000000, 159.000000)">
                <path d="M12.9915788,14.018957 L12.2594483,4.45260547 C12.2138202,3.83628906 11.7111749,3.35348242 11.1150961,3.35348242 L9.66899015,3.35348242 L9.66899015,3.28608008 C9.66899015,1.47411914 8.24741133,0 6.50003202,0 C4.75265271,0 3.33107389,1.47411914 3.33107389,3.28608008 L3.33107389,3.35348242 L1.885,3.35348242 C1.28888916,3.35348242 0.786211823,3.83625586 0.740743842,4.45131055 L0.00838916256,14.020252 C-0.0482857143,14.7864141 0.20803202,15.5491895 0.711573892,16.1129121 C1.21511576,16.6766348 1.92893103,17 2.66996305,17 L10.330069,17 C11.071069,17 11.7849163,16.676668 12.2884901,16.1129121 C12.792032,15.5491562 13.0483177,14.7864141 12.9915788,14.018957 Z M4.29134483,3.28608008 C4.29134483,2.02319922 5.28219458,0.995761719 6.50003202,0.995761719 C7.71786946,0.995761719 8.70871921,2.02323242 8.70871921,3.28608008 L8.70871921,3.35348242 L4.29134483,3.35348242 L4.29134483,3.28608008 Z" id="Shape"></path>
            </g>
        </g>
    </g>
</svg>