<?xml version="1.0" encoding="UTF-8"?>
<svg width="19px" height="24px" viewBox="0 0 19 24" version="1.1" xmlns="http://www.w3.org/2000/svg" xmlns:xlink="http://www.w3.org/1999/xlink">
    <!-- Generator: sketchtool 52.3 (67297) - http://www.bohemiancoding.com/sketch -->
    <title>4A97E2CB-ECD9-4BCC-9645-F7F92C94BF6D</title>
    <desc>Created with sketchtool.</desc>
    <g id="Page-1" stroke="none" stroke-width="1" fill="none" fill-rule="evenodd">
        <g id="84834895309592" transform="translate(-251.000000, -11.000000)" fill="#FFFFFF" fill-rule="nonzero" stroke="#FFFFFF" stroke-width="0.2">
            <g id="1008010" transform="translate(252.000000, 12.000000)">
                <path d="M16.9889877,18.1421797 L16.0315862,5.76219531 C15.9719187,4.96460938 15.3146133,4.33980078 14.5351256,4.33980078 L12.644064,4.33980078 L12.644064,4.25257422 C12.644064,1.90768359 10.7850764,0 8.50004187,0 C6.21500739,0 4.3560197,1.90768359 4.3560197,4.25257422 L4.3560197,4.33980078 L2.465,4.33980078 C1.68547044,4.33980078 1.02812315,4.96456641 0.968665025,5.76051953 L0.0109704433,18.1438555 C-0.0631428571,19.1353594 0.272041872,20.1224805 0.930519704,20.8520039 C1.58899754,21.5815273 2.52244828,22 3.49149015,22 L13.5085517,22 C14.4775517,22 15.4110443,21.5815703 16.069564,20.8520039 C16.7280419,20.1224375 17.0631847,19.1353594 16.9889877,18.1421797 Z M5.61175862,4.25257422 C5.61175862,2.61825781 6.90748522,1.28863281 8.50004187,1.28863281 C10.0925985,1.28863281 11.3883251,2.61830078 11.3883251,4.25257422 L11.3883251,4.33980078 L5.61175862,4.33980078 L5.61175862,4.25257422 Z M15.1482562,19.9763867 C14.7204089,20.450332 14.1381379,20.7113672 13.5085517,20.7113672 L3.49153202,20.7113672 C2.86194581,20.7113672 2.27967488,20.450332 1.85182759,19.9763867 C1.42402217,19.5023984 1.21491379,18.8865703 1.26298276,18.2441016 L2.2205936,5.86072266 C2.23030788,5.73044141 2.33766749,5.62843359 2.465,5.62843359 L4.3560197,5.62843359 L4.3560197,7.21548438 C4.3560197,7.57130859 4.63714778,7.85980078 4.98388916,7.85980078 C5.33063054,7.85980078 5.61175862,7.57130859 5.61175862,7.21548438 L5.61175862,5.62843359 L11.3883251,5.62843359 L11.3883251,7.21548438 C11.3883251,7.57130859 11.6694532,7.85980078 12.0161946,7.85980078 C12.362936,7.85980078 12.644064,7.57130859 12.644064,7.21548438 L12.644064,5.62843359 L14.5351256,5.62843359 C14.6624163,5.62843359 14.7697759,5.73048438 14.7796576,5.86244141 L15.7370591,18.2423828 C15.7852118,18.8865703 15.5760616,19.5023555 15.1482562,19.9763867 Z" id="Shape"></path>
            </g>
        </g>
    </g>
</svg>