<?xml version="1.0" encoding="UTF-8"?>
<svg width="14px" height="14px" viewBox="0 0 14 14" version="1.1" xmlns="http://www.w3.org/2000/svg" xmlns:xlink="http://www.w3.org/1999/xlink">
    <!-- Generator: sketchtool 52.3 (67297) - http://www.bohemiancoding.com/sketch -->
    <title>EFB108C0-A86E-45BB-A7F9-81A5A00174F1</title>
    <desc>Created with sketchtool.</desc>
    <g id="Page-1" stroke="none" stroke-width="1" fill="none" fill-rule="evenodd">
        <g id="orders-copy-3" transform="translate(-858.000000, -267.000000)" fill="#000000" fill-rule="nonzero">
            <path d="M871.24577,267.753375 C870.761034,267.267313 870.114426,267 869.428007,267 C868.741588,267 868.095856,267.266875 867.610681,267.7525 L859.878953,275.439813 C859.833017,275.485313 859.798018,275.54 859.776143,275.600375 L858.026191,280.412875 C857.969755,280.568188 858.006066,280.743625 858.120251,280.863938 C858.204248,280.952313 858.319308,281 858.437867,281 C858.480741,281 858.523615,280.993875 858.566051,280.98075 L862.918621,279.6455 C862.986869,279.624937 863.048992,279.587312 863.099741,279.537 L871.246208,271.390312 C871.732695,270.905125 872,270.2585 872,269.571625 C871.999563,268.885187 871.732695,268.239 871.24577,267.753375 Z M862.415509,278.884687 L860.786303,279.385187 C860.691368,279.1065 860.543497,278.85975 860.341815,278.658062 C860.166383,278.4835 859.962951,278.347875 859.748581,278.237625 L860.494061,276.1875 L861.500284,276.1875 L861.500284,277.0625 C861.500284,277.304438 861.695841,277.5 861.937772,277.5 L862.709939,277.5 L862.415509,278.884687 Z M868.855335,272.543563 L863.524979,277.874062 L863.6781,277.1535 C863.705224,277.024 863.67285,276.889687 863.589728,276.787312 C863.506605,276.6845 863.381921,276.625 863.250237,276.625 L862.37526,276.625 L862.37526,275.75 C862.37526,275.5085 862.179266,275.3125 861.937772,275.3125 L861.247416,275.3125 L866.450463,270.139063 L866.455713,270.143875 C866.775954,269.823188 867.202505,269.646875 867.655305,269.646875 C868.108105,269.646875 868.535094,269.823188 868.854898,270.143875 C869.174701,270.464562 869.352759,270.890688 869.352759,271.343937 C869.352759,271.797188 869.176451,272.222875 868.855335,272.543563 Z M870.627162,270.771687 L870.219423,271.179875 C870.180049,270.554688 869.920619,269.971938 869.474381,269.52525 C869.027705,269.078125 868.444534,268.819125 867.817613,268.780188 L868.227977,268.372875 L868.228852,268.372 C868.548218,268.051312 868.974769,267.875 869.428007,267.875 C869.881245,267.875 870.307358,268.051312 870.627162,268.372 C870.948278,268.692687 871.125024,269.118812 871.125024,269.571625 C871.125024,270.025312 870.949153,270.451437 870.627162,270.771687 Z M867.753302,270.628188 L863.378421,275.003188 C863.207363,275.17425 863.207363,275.45075 863.378421,275.621812 C863.463293,275.707125 863.575728,275.75 863.687725,275.75 C863.799722,275.75 863.911281,275.707125 863.997029,275.621812 L868.371911,271.246812 C868.542969,271.07575 868.542969,270.79925 868.371911,270.628188 C868.200415,270.457125 867.92436,270.457125 867.753302,270.628188 Z" id="Shape"></path>
        </g>
    </g>
</svg>