<?xml version="1.0" encoding="UTF-8"?>
<svg width="15px" height="14px" viewBox="0 0 15 14" version="1.1" xmlns="http://www.w3.org/2000/svg" xmlns:xlink="http://www.w3.org/1999/xlink">
    <!-- Generator: sketchtool 52.3 (67297) - http://www.bohemiancoding.com/sketch -->
    <title>5C191405-69D8-45E1-AAB3-FB4875C206CF</title>
    <desc>Created with sketchtool.</desc>
    <g id="Page-1" stroke="none" stroke-width="1" fill="none" fill-rule="evenodd">
        <g id="with-sale" transform="translate(-1320.000000, -28.000000)" fill="#FFFFFF" fill-rule="nonzero">
            <g id="profile" transform="translate(1320.000000, 28.000000)">
                <path d="M7.5,7.79245283 C9.70114178,7.79245283 11.4864865,6.04482817 11.4864865,3.89024902 C11.4864865,1.73566987 9.70111534,0 7.5,0 C5.29888466,0 3.51351351,1.74762466 3.51351351,3.89024902 C3.51351351,6.03287338 5.29885822,7.79245283 7.5,7.79245283 Z M7.5,1.01745094 C9.11415125,1.01745094 10.4348469,2.31019843 10.4348469,3.89024902 C10.4348469,5.47029961 9.11415125,6.76302123 7.5,6.76302123 C5.88584875,6.76302123 4.56515311,5.47027373 4.56515311,3.89022314 C4.56515311,2.31017255 5.88582231,1.01745094 7.5,1.01745094 Z" id="Shape"></path>
                <path d="M0.529551142,14 L14.4704489,14 C14.7660135,14 15,13.772378 15,13.4848527 C15,10.7892836 12.7463128,8.58490566 9.96304776,8.58490566 L5.03695224,8.58490566 C2.26601352,8.58490566 0,10.7772925 0,13.4848527 C0,13.772378 0.233986476,14 0.529551142,14 Z M5.03695224,9.61520033 L9.96304776,9.61520033 C11.9827485,9.61520033 13.6453064,11.0768089 13.9039455,12.9696794 L1.09605452,12.9696794 C1.35466695,11.0887999 3.01725148,9.61520033 5.03695224,9.61520033 Z" id="Shape"></path>
            </g>
        </g>
    </g>
</svg>