<?xml version="1.0" encoding="UTF-8"?>
<svg width="15px" height="16px" viewBox="0 0 15 16" version="1.1" xmlns="http://www.w3.org/2000/svg" xmlns:xlink="http://www.w3.org/1999/xlink">
    <!-- Generator: sketchtool 52.3 (67297) - http://www.bohemiancoding.com/sketch -->
    <title>9DCF48C0-880E-4054-8D58-85938BB4B037</title>
    <desc>Created with sketchtool.</desc>
    <g id="Page-1" stroke="none" stroke-width="1" fill="none" fill-rule="evenodd">
        <g id="product-view" transform="translate(-887.000000, -28.000000)" fill="#000000" fill-rule="nonzero" stroke="#000000" stroke-width="0.5">
            <g id="Group-11" transform="translate(360.000000, 19.000000)">
                <g id="search" transform="translate(528.000000, 10.000000)">
                    <path d="M12.8588784,13.2105661 L9.09530907,9.34405399 C10.0362178,8.37740912 10.6634466,6.95968803 10.6634466,5.47754192 C10.6634794,2.44879098 8.27988543,0 5.33173969,0 C2.38359394,0 0,2.44879098 0,5.47754192 C0,8.50629286 2.38359394,10.9550838 5.33170689,10.9550838 C6.4607777,10.9550838 7.52713876,10.5684326 8.40530495,9.92401395 L12.2316169,13.8550184 C12.419779,14.0483272 12.6707164,14.0483272 12.8588784,13.8550184 C13.0470405,13.6617097 13.0470405,13.4039085 12.8588784,13.2105661 Z M5.33173969,10.3106989 C2.75995088,10.3106989 0.627261563,8.11967535 0.627261563,5.47754192 C0.627261563,2.83540849 2.75995088,0.644384983 5.33173969,0.644384983 C7.9034957,0.644384983 10.0362178,2.83540849 10.0362178,5.47754192 C10.036185,8.11967535 7.9034957,10.3106989 5.33173969,10.3106989 Z" id="Shape"></path>
                </g>
            </g>
        </g>
    </g>
</svg>