<?xml version="1.0" encoding="UTF-8"?>
<svg width="22px" height="20px" viewBox="0 0 22 20" version="1.1" xmlns="http://www.w3.org/2000/svg" xmlns:xlink="http://www.w3.org/1999/xlink">
    <!-- Generator: sketchtool 52.3 (67297) - http://www.bohemiancoding.com/sketch -->
    <title>F87431B8-3248-4661-B179-EAB5175D1BBB</title>
    <desc>Created with sketchtool.</desc>
    <g id="Page-1" stroke="none" stroke-width="1" fill="none" fill-rule="evenodd">
        <g id="product-view" transform="translate(-161.000000, -522.000000)" fill="#000000" fill-rule="nonzero" stroke="#0F0F0F" stroke-width="0.3">
            <g id="109612" transform="translate(162.000000, 522.000000)">
                <path d="M4.25817561,6.15587323 C4.00380813,6.40719204 4.00380813,6.80284934 4.25817561,7.05416814 C4.50394959,7.30548694 4.913,7.30548694 5.15820108,7.05416814 L9.7683252,2.50778838 L9.7683252,14.6995804 C9.7683252,15.0499551 10.0501919,15.3375 10.4048168,15.3375 C10.7594417,15.3375 11.0504748,15.0499551 11.0504748,14.6995804 L11.0504748,2.50778838 L15.6514325,7.05416814 C15.9058,7.30548694 16.3154233,7.30548694 16.5606244,7.05416814 C16.8149919,6.80284934 16.8149919,6.40719204 16.5606244,6.15587323 L10.8591263,0.522709462 C10.6133523,0.27988116 10.2043019,0.27988116 9.94993442,0.522709462 L4.25817561,6.15587323 Z M19.7097452,12.4035294 C19.7097452,12.0394118 19.9554055,11.75 20.2644781,11.75 C20.5735507,11.75 20.8272,12.0394118 20.8272,12.4035294 L20.8272,18.8270588 C20.8272,19.1911765 20.5735507,19.49 20.2644781,19.49 L0.554732911,19.49 C0.245660299,19.49 0,19.1911765 0,18.8270588 L0,12.4035294 C0,12.0394118 0.245660299,11.75 0.554732911,11.75 C0.863805524,11.75 1.11745478,12.0394118 1.11745478,12.4035294 L1.11745478,18.1735294 L19.7097452,18.1735294 L19.7097452,12.4035294 Z" id="Shape"></path>
            </g>
        </g>
    </g>
</svg>