<?xml version="1.0" encoding="UTF-8"?>
<svg width="16px" height="16px" viewBox="0 0 16 16" version="1.1" xmlns="http://www.w3.org/2000/svg" xmlns:xlink="http://www.w3.org/1999/xlink">
    <!-- Generator: sketchtool 52.3 (67297) - http://www.bohemiancoding.com/sketch -->
    <title>0BD7FB77-24EA-4F8B-86FF-AAB9BBAC9A09</title>
    <desc>Created with sketchtool.</desc>
    <g id="Page-1" stroke="none" stroke-width="1" fill="none" fill-rule="evenodd">
        <g id="product-view" transform="translate(-1320.000000, -84.000000)" fill="#ffffff" fill-rule="nonzero">
            <g id="shopping-cart" transform="translate(1320.000000, 84.000000)">
                <path d="M0.642735043,12.7863248 L1.2991453,12.7863248 C0.847863248,13.5931624 0.957264957,14.6324786 1.64102564,15.3162393 C2.03760684,15.7128205 2.57094017,15.9316239 3.14529915,15.9316239 C3.71965812,15.9316239 4.23931624,15.7128205 4.64957265,15.3162393 C5.04615385,14.9196581 5.26495726,14.3863248 5.26495726,13.8119658 C5.26495726,13.442735 5.16923077,13.1008547 4.99145299,12.7863248 L7.63076923,12.7863248 C7.17948718,13.5931624 7.28888889,14.6324786 7.97264957,15.3162393 C8.36923077,15.7128205 8.9025641,15.9316239 9.47692308,15.9316239 C10.0512821,15.9316239 10.5709402,15.7128205 10.9811966,15.3162393 C11.3777778,14.9196581 11.5965812,14.3863248 11.5965812,13.8119658 C11.5965812,13.442735 11.5008547,13.1008547 11.3230769,12.7863248 L12.034188,12.7863248 C12.3487179,12.7863248 12.5948718,12.5401709 12.5948718,12.225641 C12.5948718,11.9111111 12.3487179,11.6649573 12.034188,11.6649573 L1.2034188,11.6649573 L1.2034188,10.5709402 L13.5111111,10.5709402 C13.757265,10.5709402 13.9760684,10.4068376 14.0444444,10.1606838 L15.9042735,3.36410256 C15.9452991,3.2 15.9179487,3.02222222 15.808547,2.88547009 C15.6991453,2.74871795 15.5350427,2.66666667 15.3709402,2.66666667 L1.2034188,2.66666667 L1.2034188,0.629059829 C1.2034188,0.314529915 0.957264957,0.0683760684 0.642735043,0.0683760684 C0.328205128,0.0683760684 0.0820512821,0.314529915 0.0820512821,0.629059829 L0.0820512821,3.21367521 L0.0820512821,10.0102564 L0.0820512821,12.2119658 C0.0820512821,12.5401709 0.328205128,12.7863248 0.642735043,12.7863248 Z M8.75213675,13.1008547 C8.94358974,12.9094017 9.18974359,12.8 9.46324786,12.8 C9.73675214,12.8 9.98290598,12.9094017 10.174359,13.1008547 C10.365812,13.2923077 10.4752137,13.5384615 10.4752137,13.8119658 C10.4752137,14.0854701 10.365812,14.3316239 10.174359,14.5230769 C9.79145299,14.9059829 9.13504274,14.9059829 8.75213675,14.5230769 C8.35555556,14.1264957 8.35555556,13.4974359 8.75213675,13.1008547 Z M2.43418803,13.1008547 C2.62564103,12.9094017 2.87179487,12.8 3.14529915,12.8 C3.41880342,12.8 3.66495726,12.9094017 3.85641026,13.1008547 C4.04786325,13.2923077 4.15726496,13.5384615 4.15726496,13.8119658 C4.15726496,14.0854701 4.04786325,14.3316239 3.85641026,14.5230769 C3.47350427,14.9059829 2.81709402,14.9059829 2.43418803,14.5230769 C2.03760684,14.1264957 2.03760684,13.4974359 2.43418803,13.1008547 Z M1.2034188,3.77435897 L14.6324786,3.77435897 L13.0735043,9.46324786 L1.2034188,9.46324786 L1.2034188,3.77435897 Z" id="Shape"></path>
            </g>
        </g>
    </g>
</svg>