<svg xmlns="http://www.w3.org/2000/svg" width="18" height="18" viewBox="0 0 18 18">
    <path fill="#EBC733" fill-rule="nonzero" stroke="#EBC733" stroke-width=".78" d="M3.936 17.093a.309.309 0 0 1-.18-.057.298.298 0 0 1-.121-.294l.945-5.415L.576 7.492a.297.297 0 0 1-.078-.308.305.305 0 0 1 .247-.204l5.534-.79 2.475-4.927a.306.306 0 0 1 .274-.168c.117 0 .223.065.274.168l2.475 4.927 5.534.79c.115.016.21.095.247.204a.296.296 0 0 1-.077.308l-4.005 3.835.945 5.415a.299.299 0 0 1-.121.294.308.308 0 0 1-.322.023l-4.95-2.557-4.95 2.557a.313.313 0 0 1-.142.034z"/>
</svg>
