<svg xmlns="http://www.w3.org/2000/svg" width="19" height="18" viewBox="0 0 19 18">
    <path fill="#EBC733" fill-rule="nonzero" stroke="#EBC733" stroke-width=".78" d="M4.15 17.093a.309.309 0 0 1-.18-.057.298.298 0 0 1-.122-.294l.946-5.415L.789 7.492a.297.297 0 0 1-.077-.308.305.305 0 0 1 .247-.204l5.533-.79 2.476-4.927a.306.306 0 0 1 .274-.168c.116 0 .223.065.274.168L11.99 6.19l5.534.79c.116.016.211.095.248.204a.296.296 0 0 1-.078.308l-4.004 3.835.945 5.415a.299.299 0 0 1-.122.294.308.308 0 0 1-.322.023l-4.95-2.557-4.95 2.557a.313.313 0 0 1-.142.034zM1.66 7.487l3.676 3.52a.297.297 0 0 1 .087.266l-.867 4.97 4.543-2.346a.31.31 0 0 1 .285 0l4.543 2.346-.867-4.97a.298.298 0 0 1 .088-.266l3.675-3.52-5.08-.725a.305.305 0 0 1-.23-.165L9.243 2.075 6.97 6.597a.305.305 0 0 1-.23.165l-5.08.725z"/>
</svg>
