<svg xmlns="http://www.w3.org/2000/svg" width="28" height="29" viewBox="0 0 28 29">
    <path fill="#46C16A" fill-rule="nonzero" d="M13.955 15.603V27.05l9.186-1.73v-5.576c0-.234.205-.415.439-.388l1.13.173c.199.023.349.19.349.388v6.479c0 .184-.13.343-.311.382L14.692 28.92a3.572 3.572 0 0 1-1.475.004L3.27 26.849a.392.392 0 0 1-.313-.372l-.172-6.58a.392.392 0 0 1 .36-.399l8.45-.736a.393.393 0 0 0 .329-.24l1.273-3.067c.164-.396.758-.28.758.148zM2.689 11.856L.038 17.478a.391.391 0 0 0 .396.555l9.958-.999a.394.394 0 0 0 .32-.23l3.205-7.16-10.942 1.993a.394.394 0 0 0-.286.219zm11.228-2.212l3.39 7.384c.06.13.185.216.327.228l9.94.793c.3.023.515-.28.39-.552l-2.592-5.637a.393.393 0 0 0-.289-.223L13.917 9.644zm-2.786-5.83l2.46 4.226c.19.326.664.326.854 0l2.46-4.227a.488.488 0 0 0-.426-.732h-1.23V.488A.49.49 0 0 0 14.756 0H13.28a.49.49 0 0 0-.493.488v2.593h-1.23a.488.488 0 0 0-.426.732z"/>
</svg>
