<svg xmlns="http://www.w3.org/2000/svg" width="32" height="24" viewBox="0 0 32 24">
    <path fill="#46C16A" fill-rule="nonzero" d="M31.588 18.936h-1v-5.528a3.23 3.23 0 0 0-.563-1.818L27.52 7.92a3.304 3.304 0 0 0-2.727-1.431h-3.884a.818.818 0 0 0-.823.813v11.634h-6.36a3.331 3.331 0 0 1 1.139 2.05h6.706a3.377 3.377 0 0 1 3.345-2.864c1.7 0 3.102 1.25 3.341 2.864h3.333a.41.41 0 0 0 .411-.407v-1.236a.41.41 0 0 0-.412-.407zm-4.097-6.614h-5.127a.408.408 0 0 1-.411-.407v-2.81a.41.41 0 0 1 .411-.407h3.123c.136 0 .26.065.337.17l2.004 2.815a.406.406 0 0 1-.337.639zm-2.576 6.614c-1.415 0-2.559 1.135-2.559 2.534 0 1.395 1.144 2.53 2.56 2.53 1.41 0 2.558-1.135 2.558-2.53 0-1.4-1.148-2.534-2.559-2.534zm0 3.8c-.708 0-1.28-.57-1.28-1.266 0-.7.572-1.265 1.28-1.265.708 0 1.28.565 1.28 1.265 0 .696-.572 1.265-1.28 1.265zm-21.337-3.8a.41.41 0 0 0-.411.407v1.236a.41.41 0 0 0 .411.407h4.6a3.346 3.346 0 0 1 1.136-2.05H3.578zm7.94 0c-1.41 0-2.558 1.135-2.558 2.534 0 1.395 1.148 2.53 2.559 2.53 1.415 0 2.559-1.135 2.559-2.53 0-1.4-1.144-2.534-2.56-2.534zm0 3.8c-.707 0-1.279-.57-1.279-1.266 0-.7.572-1.265 1.28-1.265.707 0 1.28.565 1.28 1.265 0 .696-.573 1.265-1.28 1.265zm6.156-18.769h-4.769c.235.687.358 1.424.358 2.184 0 3.84-3.16 6.964-7.043 6.964a7.191 7.191 0 0 1-2.041-.297v4.495a.41.41 0 0 0 .411.407h13.907a.41.41 0 0 0 .411-.407V5.187c0-.675-.551-1.22-1.234-1.22zM6.22 0C2.785 0 0 2.753 0 6.15c0 3.397 2.785 6.15 6.22 6.15 3.436 0 6.221-2.753 6.221-6.15 0-3.397-2.785-6.15-6.22-6.15zm0 10.9c-2.654 0-4.805-2.126-4.805-4.75S3.566 1.4 6.22 1.4c2.653 0 4.805 2.126 4.805 4.75S8.874 10.9 6.22 10.9zm1.835-3.747a.63.63 0 0 1-.161-.02L5.89 6.597a.612.612 0 0 1-.457-.59v-3.05c0-.337.277-.61.617-.61.341 0 .618.273.618.61v2.583l1.548.413a.61.61 0 0 1-.16 1.2z"/>
</svg>
